<svg width="60" height="18" viewBox="0 0 60 18" fill="none" xmlns="http://www.w3.org/2000/svg">
<path fill-rule="evenodd" clip-rule="evenodd" d="M1.03719 0.892462C0.79598 0.289447 0.530653 0.168844 0 0.168844V0H2.31558V0.144724C1.90553 0.168844 1.78492 0.241206 1.78492 0.38593C1.78492 0.603015 1.88141 0.77186 4.1005 6.60905L6.27136 1.10955C6.36784 0.844221 6.46432 0.554774 6.46432 0.38593C6.46432 0.144724 6.15075 0.144724 5.93367 0.144724V0H7.88744L7.86332 0.168844C7.28442 0.217085 7.11558 0.361809 6.89849 0.892462L4.05226 7.64623C4.00402 7.76683 3.95578 7.81508 3.90754 7.81508C3.8593 7.81508 3.78693 7.76683 3.76281 7.67035L1.03719 0.892462ZM11.2884 7.74271H8.97286V7.57387H9.02111C9.64824 7.57387 9.64824 7.16382 9.64824 6.34372V2.09849C9.64824 1.27839 9.55176 1.15779 8.94874 1.13367V0.988945H11.0714V1.15779C10.4201 1.15779 10.396 1.32663 10.396 2.38794V6.36784C10.396 7.35678 10.4442 7.57387 11.2884 7.57387V7.74271ZM18.4523 6.48844C18.1146 7.28442 17.3186 7.81508 16.0884 7.81508C13.9658 7.81508 12.6633 6.36784 12.6633 4.34171C12.6633 2.4603 13.9899 0.844221 16.209 0.844221C16.8844 0.844221 17.4874 0.964824 18.1869 1.25427C18.3075 1.30251 18.3317 1.35075 18.3317 1.42312L18.2593 2.77387H18.1146C18.1146 2.38794 18.0181 1.92965 17.7286 1.68844C17.3186 1.37487 16.8362 1.20603 16.0643 1.20603C14.2794 1.20603 13.4593 2.55678 13.4593 4.19699C13.4593 5.83719 14.3276 7.50151 16.1608 7.50151C17.198 7.50151 17.8734 7.11558 18.2352 6.4402C18.3075 6.29548 18.3317 6.27136 18.4281 6.29548C18.5005 6.29548 18.5005 6.34372 18.4523 6.48844ZM25.4714 2.12261H25.3025C25.2543 1.59196 25.206 1.42312 24.3859 1.42312H23.0834V6.41608C23.0834 7.47739 23.204 7.57387 23.9518 7.57387V7.74271H21.6362V7.57387C22.2151 7.57387 22.2874 7.30854 22.2874 6.60905V1.399H21.1779C20.2854 1.399 20.0925 1.42312 20.0683 2.09849H19.8995L19.8513 0.964824C19.8513 0.964824 20.7678 1.01307 21.1538 1.01307H24.2171C24.7477 1.01307 25.1819 1.01307 25.4472 0.964824L25.4714 2.12261ZM30.0301 7.8392C27.594 7.8392 26.5809 5.93367 26.5809 4.34171C26.5809 2.91859 27.6181 0.868342 30.0784 0.868342C32.0804 0.868342 33.5759 2.12261 33.5759 4.19699C33.5759 6.199 32.1769 7.8392 30.0301 7.8392ZM30.0301 1.18191C28.5588 1.18191 27.4251 2.14673 27.4251 4.1005C27.4251 6.17487 28.6794 7.50151 30.2714 7.50151C31.0673 7.50151 32.7317 7.04322 32.7317 4.46231C32.7317 2.3397 31.4291 1.18191 30.0301 1.18191ZM41.0774 7.74271H40.3055C39.3648 7.74271 39.0271 7.11558 38.5206 6.3196C38.0864 5.64422 37.6523 4.70352 37.0492 4.65528L36.6392 4.63116C36.591 4.63116 36.5668 4.63116 36.5668 4.70352V6.4402C36.5668 7.50151 36.7598 7.54975 37.4593 7.54975V7.71859H35.2161V7.54975C35.7467 7.52563 35.8673 7.45327 35.8673 6.4402V1.78492C35.8673 1.30251 35.5779 1.18191 35.0955 1.18191V0.988945H37.4352C38.6894 0.988945 39.5578 1.56784 39.5578 2.65327C39.5578 3.54573 38.8342 4.26935 38.0623 4.53467C38.7377 4.77588 39.2683 6.3196 39.8472 6.89849C40.4261 7.50151 40.6432 7.57387 41.1015 7.57387V7.74271H41.0774ZM37.4593 4.38995C38.2794 4.38995 38.7859 3.78693 38.7859 2.84623C38.7859 1.85729 38.1829 1.27839 37.2422 1.27839C36.7357 1.27839 36.591 1.27839 36.591 1.44724V4.19699C36.591 4.29347 36.591 4.31759 36.7598 4.36583C36.7839 4.36583 37.2181 4.38995 37.4593 4.38995ZM44.792 7.74271H42.4764V7.57387H42.5246C43.1518 7.57387 43.1518 7.16382 43.1518 6.34372V2.09849C43.1518 1.27839 43.0553 1.15779 42.4523 1.13367V0.988945H44.5749V1.15779C43.9236 1.15779 43.8995 1.32663 43.8995 2.38794V6.36784C43.8995 7.35678 43.9477 7.57387 44.792 7.57387V7.74271ZM50.5809 7.57387C50.9186 7.54975 51.0392 7.47739 51.0392 7.35678C51.0392 7.2603 51.0392 7.23618 50.9427 6.99498L50.2432 5.13769C50.2191 5.08945 50.195 5.08945 50.1709 5.08945H48.2653C48.2171 5.08945 48.193 5.11357 48.1688 5.16181L47.6864 6.58492C47.6382 6.75377 47.5176 7.11558 47.5176 7.30854C47.5176 7.50151 47.7106 7.57387 48.0724 7.59799V7.76683H46.1186L46.1427 7.59799C46.7216 7.54975 46.9146 7.33266 47.1075 6.77789L49.1578 1.20603C49.2784 0.916583 49.2784 0.892462 49.3508 0.892462C49.399 0.892462 49.4231 0.940704 49.5437 1.20603L51.6663 6.70553C51.8593 7.23618 52.1005 7.57387 52.7035 7.57387L52.7276 7.74271H50.605V7.57387H50.5809ZM50.0985 4.72764L49.2543 2.29146C49.2301 2.24322 49.206 2.19497 49.1819 2.19497C49.1578 2.19497 49.1337 2.24322 49.1095 2.29146L48.3136 4.6794V4.70352C48.3136 4.72764 48.3377 4.72764 48.3618 4.72764H50.0744C50.0744 4.75176 50.0985 4.75176 50.0985 4.72764ZM53.7407 1.03719C53.7407 1.6402 53.3065 2.05025 52.6553 2.17085V2.02613C53.1859 1.95377 53.3789 1.61608 53.3789 1.399C53.3789 1.20603 53.2583 1.03719 52.9688 0.892462C52.7759 0.79598 52.6553 0.723618 52.6553 0.530653C52.6553 0.337688 52.8241 0.192965 53.0171 0.192965C53.403 0.192965 53.7407 0.506533 53.7407 1.03719ZM56.9005 7.8392C56.3699 7.8392 55.8392 7.81508 55.2844 7.47739V6.17487H55.4533C55.4774 7.16382 56.1528 7.52563 56.9729 7.52563C57.8894 7.52563 58.3719 6.92261 58.3719 6.36784C58.3719 5.64422 57.9377 5.23417 56.9729 4.60704C55.6945 3.78693 55.3568 3.18392 55.3568 2.53266C55.3568 1.59196 56.0804 0.868342 57.2382 0.868342C57.8653 0.868342 58.2995 0.988945 58.7095 1.15779V2.2191H58.5407C58.4925 2.02613 58.4683 1.85729 58.3719 1.6402C58.3236 1.54372 58.0583 1.15779 57.1417 1.15779C56.4422 1.15779 55.9357 1.61608 55.9357 2.24322C55.9357 2.84623 56.394 3.20804 57.4312 3.90754C58.4683 4.60704 58.9749 5.25829 58.9749 5.98191C58.999 7.06734 58.1548 7.8392 56.9005 7.8392ZM12.0603 17.5357V16.1608H12.2533C12.3256 17.3186 13.1216 17.6804 14.0382 17.6804C15.0995 17.6804 15.7025 16.9809 15.7025 16.2814C15.7025 15.4613 15.1719 14.9548 14.0864 14.2794C12.6151 13.3387 12.2533 12.6151 12.2533 11.9397C12.2533 10.8543 13.0734 10.0824 14.4724 10.0824C15.2201 10.0824 16.0884 10.3719 16.0884 10.3719V11.5296H15.8955C15.8472 11.3367 15.8231 11.1196 15.7025 10.9266C15.6302 10.806 15.2925 10.3477 14.2553 10.3477C13.4352 10.3477 12.8322 10.8784 12.8322 11.6261C12.8322 12.3497 13.3869 12.7598 14.5688 13.5799C15.7508 14.3518 16.3055 15.1236 16.3055 15.8955C16.3055 17.8492 14.3518 17.9699 13.8693 17.9699C12.6874 17.9457 12.0603 17.5357 12.0603 17.5357ZM22.5769 16.6432L22.5528 17.8492H18.0663V17.6804C18.5246 17.6804 18.7176 17.5598 18.7176 16.6915V11.8673C18.7176 11.4332 18.4281 11.2884 17.9216 11.2884V11.0955C18.2834 11.1196 18.8141 11.1437 19.2965 11.1437H21.202C21.395 11.1437 22.2874 11.1196 22.2874 11.0955L22.2633 12.2291H22.0945C22.0462 11.5296 21.6362 11.4573 20.8161 11.4573H19.5136C19.4171 11.4573 19.4171 11.4814 19.4171 11.5538V13.99C19.4171 14.0382 19.4171 14.0864 19.4653 14.0864H21.0573C21.3467 14.0864 21.4673 13.99 21.5156 13.7246H21.6844V15.1477H21.5156C21.4915 14.8342 21.4915 14.5447 20.9849 14.4724C20.7196 14.4482 19.6101 14.4241 19.4653 14.4241C19.4171 14.4241 19.393 14.4482 19.393 14.4965V17.0533C19.4171 17.5116 19.4171 17.5116 20.5749 17.5116C20.9367 17.5116 21.7568 17.5116 21.9497 17.4151C22.2151 17.2945 22.3116 17.0533 22.3357 16.6432H22.5769ZM29.7648 16.6191C29.4271 17.4151 28.6312 17.9457 27.401 17.9457C25.2784 17.9457 23.9759 16.4985 23.9759 14.4724C23.9759 12.591 25.3025 10.9749 27.5216 10.9749C28.197 10.9749 28.8 11.0955 29.4995 11.3849C29.596 11.4332 29.6201 11.4573 29.6201 11.5538L29.5477 12.9045H29.403C29.403 12.5186 29.3065 12.0603 29.0171 11.8191C28.607 11.4814 28.1246 11.3126 27.3528 11.3126C25.5678 11.3126 24.7477 12.6633 24.7477 14.3035C24.7477 15.9437 25.6161 17.608 27.4492 17.608C28.4864 17.608 29.1618 17.2221 29.5236 16.5467C29.596 16.402 29.6201 16.3779 29.7166 16.402C29.8372 16.402 29.8372 16.4503 29.7648 16.6191ZM37.194 17.8492H36.4221C35.4814 17.8492 35.1437 17.2221 34.6372 16.4261C34.203 15.7508 33.7688 14.8101 33.1658 14.7618L32.7558 14.7377C32.7075 14.7377 32.6834 14.7377 32.6834 14.8101V16.5467C32.6834 17.608 32.8764 17.6563 33.5759 17.6563V17.8492H31.3085V17.6804C31.8392 17.6563 31.9598 17.5839 31.9598 16.5709V11.8915C31.9598 11.409 31.6704 11.2884 31.1879 11.2884V11.0955H33.5276C34.7819 11.0955 35.6502 11.6744 35.6502 12.7598C35.6502 13.6523 34.9266 14.3759 34.1548 14.6412C34.8302 14.8824 35.3849 16.4261 35.9397 17.005C36.4945 17.608 36.7357 17.6804 37.194 17.6804V17.8492ZM33.5759 14.4965C34.396 14.4965 34.9025 13.8935 34.9025 12.9528C34.9025 11.9638 34.2995 11.3849 33.3588 11.3849C32.8523 11.3849 32.7075 11.3849 32.7075 11.5538V14.3035C32.7075 14.4 32.7075 14.4241 32.8764 14.4724C32.9005 14.4724 33.3588 14.4965 33.5759 14.4965ZM42.7176 16.6432L42.6935 17.8492H38.207V17.6804C38.6653 17.6804 38.8583 17.5598 38.8583 16.6915V11.8673C38.8583 11.4332 38.5688 11.2884 38.0623 11.2884V11.0955C38.4241 11.1196 38.9548 11.1437 39.4372 11.1437H41.3427C41.5357 11.1437 42.4281 11.1196 42.4281 11.0955L42.404 12.2291H42.2352C42.1869 11.5296 41.7769 11.4573 40.9568 11.4573H39.6543C39.5578 11.4573 39.5578 11.4814 39.5578 11.5538V13.99C39.5578 14.0382 39.5578 14.0864 39.606 14.0864H41.198C41.4874 14.0864 41.608 13.99 41.6563 13.7246H41.8251V15.1477H41.6563C41.6322 14.8342 41.6322 14.5447 41.1256 14.4724C40.8603 14.4482 39.7508 14.4241 39.606 14.4241C39.5578 14.4241 39.5337 14.4482 39.5337 14.4965V17.0533C39.5578 17.5116 39.5578 17.5116 40.7156 17.5116C41.0774 17.5116 41.8975 17.5116 42.0905 17.4151C42.3558 17.2945 42.4523 17.0533 42.4764 16.6432H42.7176ZM49.5437 12.2291H49.3749C49.3266 11.6985 49.2784 11.5296 48.4583 11.5296H47.1558V16.5226C47.1558 17.5839 47.2764 17.6804 48.0241 17.6804V17.8492H45.7085V17.6804C46.2874 17.6804 46.3598 17.4151 46.3598 16.7156V11.5055H45.2503C44.3578 11.5055 44.1648 11.5296 44.1407 12.205H43.9719L43.9236 11.0714C43.9236 11.0714 44.8402 11.1196 45.2261 11.1196H48.2894C48.8201 11.1196 49.2543 11.1196 49.5196 11.0714L49.5437 12.2291Z" fill="#221D1D"/>
</svg>
