<svg width="407" height="112" viewBox="0 0 407 112" fill="none" xmlns="http://www.w3.org/2000/svg">
    <g clip-path="url(#xcj5ve2sza)">
        <path d="M398.736 0H8.264C3.7 0 0 3.582 0 8v96c0 4.418 3.7 8 8.264 8h390.472c4.564 0 8.264-3.582 8.264-8V8c0-4.418-3.7-8-8.264-8z" fill="#FAFAFA"/>
        <path d="M398.735.5H8.263C3.984.5.516 3.858.516 8v96c0 4.142 3.468 7.5 7.747 7.5h390.472c4.279 0 7.748-3.358 7.748-7.5V8c0-4.142-3.469-7.5-7.748-7.5z" stroke="#AAAAAB"/>
        <path d="M109.696 48h-1.398l3.141-8.727h1.521L116.101 48h-1.398l-2.467-7.142h-.068L109.696 48zm.234-3.418h4.534v1.108h-4.534v-1.108zm8.603-5.31V48h-1.274v-8.727h1.274zm2.988 0V48h-1.274v-8.727h1.274zm7.341 8.856c-.529 0-1-.135-1.415-.405-.412-.273-.736-.66-.972-1.163-.233-.506-.349-1.113-.349-1.82 0-.707.118-1.312.353-1.815.239-.503.566-.888.981-1.155.414-.267.884-.4 1.41-.4.406 0 .733.068.98.204.25.133.443.29.58.469.139.179.247.336.324.473h.076v-3.243h1.274V48h-1.244v-1.019h-.106c-.077.14-.188.299-.333.478a1.847 1.847 0 0 1-.588.469c-.25.133-.574.2-.971.2zm.281-1.087c.366 0 .676-.096.929-.29.255-.196.449-.467.579-.813.134-.347.201-.75.201-1.21a3.34 3.34 0 0 0-.196-1.194 1.756 1.756 0 0 0-.576-.797c-.253-.19-.565-.285-.937-.285-.384 0-.703.1-.959.298-.256.199-.449.47-.58.814a3.34 3.34 0 0 0-.191 1.163c0 .438.065.831.196 1.18.13.35.324.627.579.832.259.201.577.302.955.302zm7.601 1.091c-.645 0-1.2-.138-1.666-.413a2.806 2.806 0 0 1-1.074-1.172c-.25-.506-.375-1.098-.375-1.777 0-.67.125-1.262.375-1.773.253-.511.605-.91 1.057-1.197.454-.287.986-.43 1.593-.43.37 0 .728.06 1.074.183.347.122.658.314.934.575.275.261.492.6.652 1.018.159.415.238.92.238 1.513v.452h-5.203v-.955h3.955c0-.335-.069-.632-.205-.89a1.545 1.545 0 0 0-.575-.618 1.61 1.61 0 0 0-.861-.226c-.358 0-.67.088-.938.264-.264.173-.468.4-.613.682a1.969 1.969 0 0 0-.213.908v.745c0 .438.076.81.23 1.117.156.307.373.541.652.703.278.159.604.239.976.239.241 0 .461-.035.66-.103a1.359 1.359 0 0 0 .848-.831l1.206.218c-.096.355-.27.666-.52.933-.247.264-.558.47-.933.618a3.492 3.492 0 0 1-1.274.217zm9.634-6.677L144.004 48h-1.363l-2.378-6.545h1.368l1.657 5.037h.069l1.653-5.037h1.368zM147.575 48v-6.545h1.274V48h-1.274zm.644-7.555a.81.81 0 0 1-.571-.222.718.718 0 0 1-.235-.537c0-.21.078-.39.235-.537a.801.801 0 0 1 .571-.226.79.79 0 0 1 .567.226.706.706 0 0 1 .238.537.714.714 0 0 1-.238.537.798.798 0 0 1-.567.222zm5.102 7.687c-.634 0-1.179-.143-1.637-.43a2.85 2.85 0 0 1-1.048-1.198c-.244-.508-.366-1.09-.366-1.747 0-.665.125-1.251.375-1.76.25-.511.602-.91 1.056-1.197.455-.287.99-.43 1.607-.43.497 0 .94.092 1.329.276.39.182.704.438.942.767.242.33.385.715.431 1.155h-1.24a1.494 1.494 0 0 0-.469-.792c-.242-.222-.566-.333-.972-.333-.355 0-.666.094-.933.281-.264.185-.47.45-.618.793-.148.341-.222.744-.222 1.21 0 .478.073.89.218 1.236.145.347.349.615.613.806.267.19.581.285.942.285.242 0 .46-.044.656-.132.199-.091.365-.22.499-.388.136-.167.232-.37.286-.605h1.24a2.417 2.417 0 0 1-.414 1.133c-.23.333-.538.594-.924.785-.384.19-.834.285-1.351.285zm6.872 0c-.645 0-1.2-.138-1.666-.413a2.806 2.806 0 0 1-1.074-1.172c-.25-.506-.375-1.098-.375-1.777 0-.67.125-1.262.375-1.773.253-.511.605-.91 1.057-1.197.454-.287.986-.43 1.594-.43.369 0 .727.06 1.074.183.346.122.657.314.933.575.275.261.493.6.652 1.018.159.415.238.92.238 1.513v.452h-5.203v-.955h3.955c0-.335-.068-.632-.205-.89a1.545 1.545 0 0 0-.575-.618 1.607 1.607 0 0 0-.861-.226c-.358 0-.67.088-.937.264-.264.173-.469.4-.614.682a1.969 1.969 0 0 0-.213.908v.745c0 .438.077.81.23 1.117.156.307.374.541.652.703.279.159.604.239.976.239.241 0 .462-.035.66-.103a1.359 1.359 0 0 0 .848-.831l1.206.218a2.177 2.177 0 0 1-.519.933 2.53 2.53 0 0 1-.934.618 3.492 3.492 0 0 1-1.274.217zm9.127-5.08-1.155.205a1.364 1.364 0 0 0-.23-.422 1.13 1.13 0 0 0-.418-.328 1.51 1.51 0 0 0-.66-.128c-.361 0-.662.081-.904.243-.241.16-.362.365-.362.618 0 .219.081.395.243.529.162.133.423.242.784.328l1.04.238c.602.14 1.051.354 1.347.644.295.29.443.666.443 1.129 0 .392-.114.741-.341 1.048-.225.304-.538.543-.942.716-.4.173-.865.26-1.393.26-.733 0-1.331-.156-1.794-.469-.463-.315-.748-.762-.853-1.342l1.232-.188c.077.322.234.564.473.73.239.161.55.242.933.242.418 0 .752-.086 1.002-.26.25-.176.375-.39.375-.643a.668.668 0 0 0-.231-.516c-.15-.14-.382-.244-.694-.315l-1.108-.243c-.611-.14-1.063-.361-1.355-.665-.29-.304-.435-.689-.435-1.155 0-.386.108-.724.324-1.014a2.12 2.12 0 0 1 .895-.677 3.267 3.267 0 0 1 1.308-.248c.707 0 1.264.154 1.671.46.406.304.674.712.805 1.224zm6.609 5.093c-.414 0-.789-.077-1.125-.23a1.897 1.897 0 0 1-.797-.678c-.193-.295-.289-.657-.289-1.086 0-.37.071-.674.213-.912.142-.239.334-.428.575-.567.242-.14.511-.244.81-.316.298-.07.602-.125.912-.161l.954-.111c.244-.031.422-.081.533-.15.111-.067.166-.178.166-.332v-.03c0-.372-.105-.66-.315-.865-.208-.204-.517-.306-.929-.306-.429 0-.767.095-1.014.285a1.527 1.527 0 0 0-.508.627l-1.197-.273a2.3 2.3 0 0 1 .622-.963c.276-.247.592-.426.95-.537.358-.114.735-.17 1.13-.17.261 0 .538.03.831.093.295.06.571.17.826.332.259.162.471.394.635.695.165.298.247.686.247 1.163V48h-1.244v-.895h-.051a1.801 1.801 0 0 1-.371.486c-.165.159-.376.291-.635.396a2.46 2.46 0 0 1-.929.158zm.277-1.023c.353 0 .654-.07.904-.209.253-.139.444-.32.575-.545.134-.227.2-.47.2-.729v-.844c-.045.046-.133.088-.264.128-.128.037-.274.07-.439.098l-.481.073-.392.05a3.152 3.152 0 0 0-.678.159 1.16 1.16 0 0 0-.486.32c-.119.136-.179.317-.179.545 0 .315.117.554.35.715.233.16.53.24.89.24zm4.651.878v-6.545h1.231v1.04h.068c.12-.353.33-.63.631-.832a1.805 1.805 0 0 1 1.031-.306 5.412 5.412 0 0 1 .541.03v1.218a2.297 2.297 0 0 0-.272-.047 2.623 2.623 0 0 0-.392-.03c-.302 0-.57.064-.806.192a1.429 1.429 0 0 0-.758 1.283V48h-1.274zm7.192.132c-.645 0-1.201-.138-1.667-.413a2.798 2.798 0 0 1-1.073-1.172c-.25-.506-.375-1.098-.375-1.777 0-.67.125-1.262.375-1.773.252-.511.605-.91 1.056-1.197.455-.287.986-.43 1.594-.43.369 0 .727.06 1.074.183.347.122.658.314.933.575.276.261.493.6.652 1.018.159.415.239.92.239 1.513v.452h-5.203v-.955h3.954c0-.335-.068-.632-.204-.89a1.547 1.547 0 0 0-.576-.618 1.606 1.606 0 0 0-.86-.226c-.358 0-.671.088-.938.264-.264.173-.469.4-.613.682a1.97 1.97 0 0 0-.214.908v.745c0 .438.077.81.231 1.117.156.307.373.541.652.703.278.159.603.239.975.239.242 0 .462-.035.661-.103a1.43 1.43 0 0 0 .516-.315c.144-.14.255-.311.332-.516l1.206.218c-.097.355-.27.666-.52.933-.247.264-.558.47-.933.618a3.492 3.492 0 0 1-1.274.217zm9.848-.004c-.529 0-1-.135-1.415-.405-.412-.273-.736-.66-.972-1.163-.233-.506-.349-1.113-.349-1.82 0-.707.118-1.312.354-1.815.238-.503.565-.888.98-1.155.414-.267.885-.4 1.41-.4.406 0 .733.068.98.204.25.133.443.29.58.469.139.179.247.336.324.473h.076v-3.243h1.275V48h-1.245v-1.019h-.106c-.077.14-.188.299-.333.478a1.847 1.847 0 0 1-.588.469c-.25.133-.574.2-.971.2zm.281-1.087c.366 0 .676-.096.929-.29.256-.196.449-.467.579-.813.134-.347.201-.75.201-1.21a3.34 3.34 0 0 0-.196-1.194 1.756 1.756 0 0 0-.576-.797c-.252-.19-.565-.285-.937-.285-.384 0-.703.1-.959.298-.256.199-.449.47-.579.814a3.316 3.316 0 0 0-.192 1.163c0 .438.065.831.196 1.18.131.35.324.627.579.832.259.201.577.302.955.302zm6.685 1.104c-.415 0-.79-.077-1.125-.23a1.897 1.897 0 0 1-.797-.678c-.193-.295-.29-.657-.29-1.086 0-.37.071-.674.213-.912a1.57 1.57 0 0 1 .576-.567 3 3 0 0 1 .809-.316c.299-.07.603-.125.912-.161l.955-.111c.244-.031.422-.081.532-.15.111-.067.167-.178.167-.332v-.03c0-.372-.105-.66-.316-.865-.207-.204-.517-.306-.929-.306-.429 0-.767.095-1.014.285a1.532 1.532 0 0 0-.507.627l-1.197-.273a2.3 2.3 0 0 1 .622-.963c.275-.247.592-.426.95-.537.358-.114.734-.17 1.129-.17.262 0 .539.03.831.093.296.06.571.17.827.332.258.162.47.394.635.695.165.298.247.686.247 1.163V48h-1.244v-.895h-.051a1.822 1.822 0 0 1-.371.486c-.165.159-.377.291-.635.396a2.464 2.464 0 0 1-.929.158zm.277-1.023c.352 0 .653-.07.903-.209.253-.139.445-.32.576-.545.133-.227.2-.47.2-.729v-.844a.673.673 0 0 1-.264.128c-.128.037-.274.07-.439.098l-.482.073-.392.05a3.143 3.143 0 0 0-.677.159 1.16 1.16 0 0 0-.486.32c-.119.136-.179.317-.179.545 0 .315.116.554.349.715.233.16.53.24.891.24zm7.706-5.667v1.022h-3.576v-1.022h3.576zm-2.617-1.569h1.274v6.192c0 .247.037.433.111.558a.578.578 0 0 0 .286.252c.119.042.248.064.387.064.103 0 .192-.007.269-.022l.179-.034.23 1.053a2.505 2.505 0 0 1-.827.136 2.24 2.24 0 0 1-.937-.179 1.6 1.6 0 0 1-.703-.58c-.179-.26-.269-.589-.269-.984v-6.456zm5.931 8.259c-.415 0-.79-.077-1.125-.23a1.897 1.897 0 0 1-.797-.678c-.193-.295-.29-.657-.29-1.086 0-.37.071-.674.213-.912a1.57 1.57 0 0 1 .576-.567 3 3 0 0 1 .809-.316c.298-.07.602-.125.912-.161l.955-.111c.244-.031.422-.081.532-.15.111-.067.167-.178.167-.332v-.03c0-.372-.106-.66-.316-.865-.207-.204-.517-.306-.929-.306-.429 0-.767.095-1.014.285a1.532 1.532 0 0 0-.507.627l-1.198-.273c.142-.398.35-.719.623-.963.275-.247.592-.426.95-.537.358-.114.734-.17 1.129-.17.262 0 .538.03.831.093.296.06.571.17.827.332.258.162.47.394.635.695.165.298.247.686.247 1.163V48h-1.244v-.895h-.052a1.817 1.817 0 0 1-.37.486c-.165.159-.377.291-.635.396a2.464 2.464 0 0 1-.929.158zm.277-1.023c.352 0 .653-.07.903-.209.253-.139.445-.32.575-.545.134-.227.201-.47.201-.729v-.844a.673.673 0 0 1-.264.128c-.128.037-.275.07-.439.098l-.482.073-.392.05a3.143 3.143 0 0 0-.677.159 1.16 1.16 0 0 0-.486.32c-.12.136-.179.317-.179.545 0 .315.116.554.349.715.233.16.53.24.891.24zm8.507-3.362v1.104h-3.87V43.76h3.87zm3.117 4.24-1.926-6.545h1.316l1.283 4.806h.064l1.287-4.806h1.317l1.278 4.785h.064l1.274-4.785h1.317L233.413 48h-1.3l-1.329-4.726h-.098L229.356 48h-1.295zm8.483 0v-6.545h1.274V48h-1.274zm.644-7.555a.813.813 0 0 1-.572-.222.721.721 0 0 1-.234-.537c0-.21.078-.39.234-.537.16-.15.35-.226.572-.226.221 0 .41.076.566.226a.707.707 0 0 1 .239.537c0 .208-.08.386-.239.537a.794.794 0 0 1-.566.222zm2.344 10.01v-9h1.245v1.06h.106c.074-.136.181-.293.32-.472.139-.18.332-.336.579-.47.247-.136.574-.204.98-.204.529 0 1 .134 1.415.4.415.268.74.653.976 1.156.239.503.358 1.108.358 1.815 0 .707-.118 1.314-.354 1.82-.235.502-.559.89-.971 1.163-.412.27-.882.405-1.411.405-.398 0-.723-.067-.976-.2a1.847 1.847 0 0 1-.588-.47 3.58 3.58 0 0 1-.328-.477h-.077v3.474h-1.274zm1.249-5.728c0 .46.067.864.2 1.21.134.347.327.618.58.814.253.194.562.29.929.29.38 0 .699-.1.954-.302.256-.205.449-.482.58-.831.133-.35.2-.743.2-1.18 0-.433-.065-.82-.196-1.164a1.785 1.785 0 0 0-.579-.814c-.256-.199-.576-.298-.959-.298-.37 0-.682.095-.938.285-.253.19-.444.456-.575.797-.131.341-.196.739-.196 1.193zm8.979 3.405c-.645 0-1.201-.138-1.667-.413a2.798 2.798 0 0 1-1.073-1.172c-.25-.506-.375-1.098-.375-1.777 0-.67.125-1.262.375-1.773.252-.511.605-.91 1.056-1.197.455-.287.986-.43 1.594-.43.369 0 .727.06 1.074.183.347.122.658.314.933.575.276.261.493.6.652 1.018.159.415.239.92.239 1.513v.452h-5.203v-.955h3.954c0-.335-.068-.632-.204-.89a1.547 1.547 0 0 0-.576-.618 1.606 1.606 0 0 0-.86-.226c-.358 0-.671.088-.938.264-.264.173-.469.4-.614.682a1.969 1.969 0 0 0-.213.908v.745c0 .438.077.81.231 1.117.156.307.373.541.652.703.278.159.603.239.975.239.242 0 .462-.035.661-.103a1.43 1.43 0 0 0 .516-.315c.144-.14.255-.311.332-.516l1.206.218c-.097.355-.27.666-.52.933-.247.264-.558.47-.933.618a3.492 3.492 0 0 1-1.274.217zm6.672-.004c-.529 0-1-.135-1.415-.405-.412-.273-.736-.66-.972-1.163-.232-.506-.349-1.113-.349-1.82 0-.707.118-1.312.354-1.815.238-.503.565-.888.98-1.155.415-.267.885-.4 1.41-.4.407 0 .733.068.98.204.25.133.444.29.58.469.139.179.247.336.324.473h.077v-3.243h1.274V48h-1.245v-1.019h-.106c-.077.14-.188.299-.333.478a1.847 1.847 0 0 1-.588.469c-.25.133-.573.2-.971.2zm.281-1.087c.367 0 .676-.096.929-.29.256-.196.449-.467.58-.813.133-.347.2-.75.2-1.21 0-.455-.065-.853-.196-1.194a1.761 1.761 0 0 0-.575-.797c-.253-.19-.566-.285-.938-.285-.383 0-.703.1-.959.298-.255.199-.449.47-.579.814a3.316 3.316 0 0 0-.192 1.163c0 .438.065.831.196 1.18.131.35.324.627.58.832.258.201.576.302.954.302zm12.102-1.755v-3.831h1.279V48h-1.253v-1.133h-.068c-.151.349-.392.64-.725.873-.329.23-.74.345-1.231.345-.421 0-.793-.092-1.117-.277a1.94 1.94 0 0 1-.758-.83c-.182-.367-.273-.82-.273-1.36v-4.163h1.274v4.01c0 .445.124.8.371 1.065.247.264.568.396.963.396.239 0 .476-.06.712-.179.238-.12.436-.3.592-.541.159-.242.237-.548.234-.92zm7.896-2.233-1.155.204a1.385 1.385 0 0 0-.23-.422 1.147 1.147 0 0 0-.418-.328 1.51 1.51 0 0 0-.66-.128c-.361 0-.662.081-.904.243-.241.16-.362.365-.362.618 0 .219.081.395.243.529.162.133.423.242.784.328l1.04.238c.602.14 1.051.354 1.346.644.296.29.443.666.443 1.129 0 .392-.113.741-.34 1.048-.225.304-.539.543-.942.716-.401.173-.865.26-1.394.26-.733 0-1.331-.156-1.794-.469-.463-.315-.747-.762-.852-1.342l1.232-.188c.076.322.234.564.473.73.238.161.549.242.933.242.417 0 .751-.086 1.001-.26.25-.176.375-.39.375-.643a.67.67 0 0 0-.23-.516c-.15-.14-.382-.244-.695-.315l-1.107-.243c-.611-.14-1.063-.361-1.356-.665-.289-.304-.434-.689-.434-1.155 0-.386.108-.724.324-1.014.216-.29.514-.516.894-.677a3.269 3.269 0 0 1 1.309-.248c.707 0 1.264.154 1.67.46.406.304.675.712.806 1.224zM278.239 48v-6.545h1.274V48h-1.274zm.644-7.555a.81.81 0 0 1-.571-.222.722.722 0 0 1-.235-.537c0-.21.079-.39.235-.537a.801.801 0 0 1 .571-.226.79.79 0 0 1 .567.226.706.706 0 0 1 .238.537.714.714 0 0 1-.238.537.798.798 0 0 1-.567.222zm3.619 3.669V48h-1.274v-6.545h1.223v1.065h.081c.15-.347.386-.625.707-.835.324-.21.732-.316 1.223-.316.446 0 .837.094 1.172.282.335.184.595.46.78.826.184.367.277.82.277 1.36V48h-1.274v-4.01c0-.474-.124-.845-.371-1.112-.247-.27-.587-.405-1.019-.405-.295 0-.558.064-.788.192a1.377 1.377 0 0 0-.541.562c-.131.245-.196.54-.196.887zm8.642 6.477c-.52 0-.968-.068-1.343-.205a2.59 2.59 0 0 1-.911-.54 2.28 2.28 0 0 1-.529-.738l1.095-.452c.077.125.179.257.307.397.131.142.307.262.529.362.224.1.512.149.865.149.483 0 .882-.118 1.197-.354.315-.233.473-.605.473-1.116v-1.287h-.081c-.077.139-.187.294-.332.464-.142.17-.338.319-.588.444-.25.124-.576.187-.976.187-.517 0-.983-.12-1.398-.362-.412-.245-.739-.604-.98-1.078-.239-.478-.358-1.064-.358-1.76s.118-1.293.354-1.79c.238-.497.565-.878.98-1.142.415-.267.885-.4 1.41-.4.407 0 .735.068.985.204.25.133.444.29.583.469.143.179.252.336.329.473h.093v-1.061h1.249v6.69c0 .562-.131 1.024-.392 1.385-.261.36-.615.628-1.061.801a4.09 4.09 0 0 1-1.5.26zm-.013-3.746c.367 0 .676-.085.929-.255.256-.174.449-.421.58-.742.133-.324.2-.712.2-1.163 0-.44-.065-.829-.196-1.164a1.737 1.737 0 0 0-.575-.784c-.253-.19-.566-.285-.938-.285-.383 0-.703.1-.959.298a1.798 1.798 0 0 0-.579.801 3.18 3.18 0 0 0-.192 1.134c0 .429.065.805.196 1.129.131.324.324.577.579.758.259.182.577.273.955.273zM111.784 64h-2.825v-8.727h2.915c.855 0 1.589.174 2.203.524a3.453 3.453 0 0 1 1.41 1.496c.33.647.495 1.424.495 2.33 0 .91-.167 1.69-.499 2.344a3.502 3.502 0 0 1-1.432 1.509c-.625.35-1.381.524-2.267.524zm-1.508-1.15h1.436c.664 0 1.217-.126 1.657-.376.441-.252.77-.617.989-1.095.219-.48.328-1.065.328-1.755 0-.685-.109-1.266-.328-1.743a2.318 2.318 0 0 0-.967-1.087c-.429-.247-.962-.37-1.598-.37h-1.517v6.425zm10.062 1.282c-.645 0-1.201-.138-1.666-.413a2.794 2.794 0 0 1-1.074-1.172c-.25-.506-.375-1.098-.375-1.777 0-.67.125-1.262.375-1.773.252-.511.605-.91 1.056-1.197.455-.287.986-.43 1.594-.43.37 0 .727.06 1.074.183.347.122.658.314.933.575.276.261.493.6.652 1.018.159.415.239.92.239 1.513v.452h-5.203v-.955h3.954c0-.335-.068-.632-.204-.89a1.552 1.552 0 0 0-.575-.618 1.612 1.612 0 0 0-.861-.226c-.358 0-.671.088-.938.264-.264.173-.469.4-.613.682a1.969 1.969 0 0 0-.213.908v.745c0 .438.076.81.23 1.117.156.307.373.541.652.703.278.159.603.239.975.239.242 0 .462-.035.661-.103a1.37 1.37 0 0 0 .848-.831l1.206.218c-.097.355-.27.666-.52.933-.247.264-.558.47-.933.618a3.492 3.492 0 0 1-1.274.217zm9.634-6.678L127.598 64h-1.364l-2.377-6.545h1.367l1.658 5.037h.068l1.654-5.037h1.368zM131.169 64v-6.545h1.274V64h-1.274zm.643-7.555a.813.813 0 0 1-.571-.222.721.721 0 0 1-.234-.537c0-.21.078-.39.234-.537.16-.15.35-.226.571-.226.222 0 .411.076.567.226a.707.707 0 0 1 .239.537c0 .208-.08.386-.239.537a.795.795 0 0 1-.567.222zm5.102 7.687c-.633 0-1.179-.143-1.636-.43a2.85 2.85 0 0 1-1.048-1.198c-.245-.508-.367-1.09-.367-1.747 0-.665.125-1.251.375-1.76.25-.511.603-.91 1.057-1.197.455-.287.99-.43 1.607-.43.497 0 .94.092 1.329.276.389.182.703.438.942.767.241.33.385.715.43 1.155h-1.24a1.486 1.486 0 0 0-.468-.792c-.242-.222-.566-.333-.972-.333-.355 0-.666.094-.933.281-.265.185-.47.45-.618.793-.148.341-.222.744-.222 1.21 0 .478.073.89.218 1.236.144.347.349.615.613.806.267.19.581.285.942.285.241 0 .46-.044.656-.132.199-.091.365-.22.499-.388.136-.167.231-.37.285-.605h1.24a2.405 2.405 0 0 1-.413 1.133c-.23.333-.538.594-.925.785-.383.19-.834.285-1.351.285zm6.873 0c-.645 0-1.2-.138-1.666-.413a2.806 2.806 0 0 1-1.074-1.172c-.25-.506-.375-1.098-.375-1.777 0-.67.125-1.262.375-1.773.253-.511.605-.91 1.057-1.197.454-.287.985-.43 1.593-.43.37 0 .728.06 1.074.183.347.122.658.314.934.575.275.261.492.6.652 1.018.159.415.238.92.238 1.513v.452h-5.203v-.955h3.955c0-.335-.069-.632-.205-.89a1.545 1.545 0 0 0-.575-.618 1.61 1.61 0 0 0-.861-.226c-.358 0-.67.088-.938.264-.264.173-.468.4-.613.682a1.969 1.969 0 0 0-.213.908v.745c0 .438.076.81.23 1.117.156.307.373.541.652.703.278.159.604.239.976.239.241 0 .461-.035.66-.103a1.359 1.359 0 0 0 .848-.831l1.206.218c-.096.355-.27.666-.52.933-.247.264-.558.47-.933.618a3.492 3.492 0 0 1-1.274.217zm9.084-6.567a1.245 1.245 0 0 0-.562-.937c-.33-.225-.745-.337-1.245-.337a2.32 2.32 0 0 0-.929.17c-.261.111-.464.265-.609.46a1.087 1.087 0 0 0-.213.661.97.97 0 0 0 .145.537c.099.15.228.277.388.38.161.099.335.183.519.251.185.065.363.12.533.162l.852.221c.279.069.564.161.857.277.293.117.564.27.814.46.25.191.452.427.605.708.156.281.234.618.234 1.01 0 .494-.128.933-.383 1.317-.253.383-.621.686-1.104.907-.48.222-1.061.333-1.743.333-.653 0-1.219-.104-1.696-.311-.477-.208-.851-.502-1.121-.882-.269-.384-.419-.838-.447-1.364h1.321c.026.315.128.578.307.788.182.208.413.363.694.465.285.1.596.15.934.15.372 0 .703-.06.993-.176.292-.119.522-.284.69-.494.168-.213.251-.462.251-.746a.918.918 0 0 0-.221-.635 1.642 1.642 0 0 0-.593-.409 5.804 5.804 0 0 0-.839-.285l-1.031-.282c-.699-.19-1.253-.47-1.662-.839-.407-.37-.61-.858-.61-1.466 0-.503.137-.942.409-1.317a2.687 2.687 0 0 1 1.108-.873c.466-.21.992-.316 1.577-.316.591 0 1.112.104 1.564.312.455.207.813.492 1.074.856.261.36.398.776.409 1.244h-1.27zm4.765 6.58c-.414 0-.789-.077-1.125-.23a1.903 1.903 0 0 1-.797-.678c-.193-.295-.289-.657-.289-1.086 0-.37.071-.674.213-.912.142-.239.334-.428.575-.567.242-.14.511-.244.81-.316.298-.07.602-.125.912-.161l.954-.111c.245-.031.422-.081.533-.15.111-.067.166-.178.166-.332v-.03c0-.372-.105-.66-.315-.865-.208-.204-.517-.306-.929-.306-.429 0-.767.095-1.014.285a1.527 1.527 0 0 0-.508.627l-1.197-.273a2.3 2.3 0 0 1 .622-.963c.276-.247.592-.426.95-.537.358-.114.735-.17 1.13-.17.261 0 .538.03.831.093.295.06.571.17.826.332.259.162.471.394.635.695.165.298.247.686.247 1.163V64h-1.244v-.895h-.051a1.801 1.801 0 0 1-.371.486c-.164.159-.376.291-.635.396a2.46 2.46 0 0 1-.929.158zm.277-1.023c.353 0 .654-.07.904-.209.253-.139.444-.32.575-.545.134-.227.2-.47.2-.729v-.844c-.045.046-.133.088-.264.128-.128.037-.274.07-.439.098l-.481.073-.392.05a3.152 3.152 0 0 0-.678.159 1.16 1.16 0 0 0-.486.32c-.119.136-.179.317-.179.545 0 .315.117.554.35.715.233.16.53.24.89.24zm7.766-5.667v1.022h-3.699v-1.022h3.699zM162.994 64v-7.304c0-.41.089-.749.268-1.018a1.65 1.65 0 0 1 .712-.61c.296-.136.617-.204.963-.204a2.9 2.9 0 0 1 .656.064c.182.04.317.076.405.11l-.298 1.032a6.353 6.353 0 0 0-.23-.06 1.32 1.32 0 0 0-.341-.038c-.31 0-.531.076-.665.23-.131.153-.196.375-.196.665V64h-1.274zm6.562.132c-.644 0-1.2-.138-1.666-.413a2.806 2.806 0 0 1-1.074-1.172c-.25-.506-.375-1.098-.375-1.777 0-.67.125-1.262.375-1.773.253-.511.606-.91 1.057-1.197.455-.287.986-.43 1.594-.43.369 0 .727.06 1.074.183a2.6 2.6 0 0 1 .933.575c.276.261.493.6.652 1.018.159.415.239.92.239 1.513v.452h-5.203v-.955h3.954c0-.335-.068-.632-.204-.89a1.554 1.554 0 0 0-.576-.618 1.607 1.607 0 0 0-.861-.226c-.357 0-.67.088-.937.264-.264.173-.469.4-.614.682a1.969 1.969 0 0 0-.213.908v.745c0 .438.077.81.23 1.117.157.307.374.541.652.703.279.159.604.239.976.239.242 0 .462-.035.661-.103a1.373 1.373 0 0 0 .848-.831l1.206.218c-.097.355-.27.666-.52.933-.247.264-.558.47-.933.618a3.498 3.498 0 0 1-1.275.217zm7.278-6.678v1.023h-3.575v-1.022h3.575zm-2.617-1.568h1.274v6.192c0 .247.037.433.111.558a.578.578 0 0 0 .286.252c.119.042.248.064.388.064.102 0 .191-.007.268-.022l.179-.034.23 1.053a2.505 2.505 0 0 1-.827.136 2.242 2.242 0 0 1-.937-.179 1.606 1.606 0 0 1-.703-.58c-.179-.26-.269-.589-.269-.984v-6.456zm4.832 10.568c-.191 0-.364-.015-.52-.046a1.65 1.65 0 0 1-.35-.094l.307-1.044c.233.062.44.09.622.08a.746.746 0 0 0 .482-.204c.142-.127.267-.336.375-.626l.158-.435-2.395-6.63h1.363l1.658 5.08h.068l1.658-5.08h1.368l-2.698 7.419c-.125.34-.284.629-.477.865a1.85 1.85 0 0 1-.69.537 2.26 2.26 0 0 1-.929.178zm6.42-2.373a.826.826 0 0 1-.6-.247.824.824 0 0 1-.252-.605c0-.233.084-.432.252-.597a.819.819 0 0 1 .6-.251.82.82 0 0 1 .601.251.805.805 0 0 1 .252.597c0 .156-.04.3-.12.43a.88.88 0 0 1-.306.307.814.814 0 0 1-.427.115zm5.317.051c-.614 0-1.15-.14-1.607-.422a2.84 2.84 0 0 1-1.065-1.18c-.253-.506-.38-1.097-.38-1.773 0-.679.127-1.273.38-1.781a2.835 2.835 0 0 1 1.065-1.185c.457-.281.993-.422 1.607-.422.613 0 1.149.14 1.606.422.457.281.813.676 1.065 1.185.253.508.38 1.102.38 1.781 0 .676-.127 1.267-.38 1.773a2.84 2.84 0 0 1-1.065 1.18c-.457.282-.993.422-1.606.422zm.004-1.07c.398 0 .727-.105.988-.315.262-.21.455-.49.58-.84.128-.349.192-.734.192-1.154 0-.418-.064-.801-.192-1.15a1.87 1.87 0 0 0-.58-.849c-.261-.213-.59-.32-.988-.32-.401 0-.733.107-.997.32a1.9 1.9 0 0 0-.584.848c-.125.35-.188.733-.188 1.15 0 .421.063.806.188 1.156.128.35.322.629.584.84.264.21.596.315.997.315zm4.469.938v-6.545h1.231v1.04h.069a1.58 1.58 0 0 1 .63-.832 1.806 1.806 0 0 1 1.032-.306 5.445 5.445 0 0 1 .541.03v1.218a2.285 2.285 0 0 0-.273-.047 2.613 2.613 0 0 0-.392-.03c-.301 0-.57.064-.805.192a1.422 1.422 0 0 0-.759 1.283V64h-1.274zm7.115 2.59c-.52 0-.967-.067-1.342-.204a2.605 2.605 0 0 1-.912-.54 2.262 2.262 0 0 1-.528-.738l1.095-.452c.076.125.179.257.307.397.13.142.306.262.528.362.224.1.513.149.865.149.483 0 .882-.118 1.198-.354.315-.233.473-.605.473-1.116v-1.287h-.081c-.077.139-.188.294-.333.464-.142.17-.338.319-.588.444-.25.124-.575.187-.976.187-.517 0-.983-.12-1.397-.362-.412-.245-.739-.604-.981-1.078-.238-.478-.358-1.064-.358-1.76s.118-1.293.354-1.79c.239-.497.565-.878.98-1.142a2.55 2.55 0 0 1 1.411-.4c.406 0 .734.068.984.204.25.133.445.29.584.469.142.179.251.336.328.473h.094v-1.061h1.248v6.69c0 .562-.13 1.024-.392 1.385-.261.36-.615.628-1.061.801a4.09 4.09 0 0 1-1.5.26zm-.012-3.745c.366 0 .676-.085.928-.255.256-.174.449-.421.58-.742.134-.324.2-.712.2-1.163 0-.44-.065-.829-.196-1.164a1.722 1.722 0 0 0-.575-.784c-.253-.19-.565-.285-.937-.285-.384 0-.704.1-.959.298a1.8 1.8 0 0 0-.58.801 3.18 3.18 0 0 0-.192 1.134c0 .429.066.805.196 1.129.131.324.324.577.58.758.258.182.577.273.955.273zm10.607 1.287c-.633 0-1.179-.143-1.636-.43a2.853 2.853 0 0 1-1.049-1.198c-.244-.508-.366-1.09-.366-1.747 0-.665.125-1.251.375-1.76a2.87 2.87 0 0 1 1.057-1.197c.454-.287.99-.43 1.606-.43.497 0 .941.092 1.33.276.389.182.703.438.942.767.241.33.385.715.43 1.155h-1.24a1.481 1.481 0 0 0-.469-.792c-.241-.222-.565-.333-.971-.333-.355 0-.667.094-.934.281-.264.185-.47.45-.618.793-.147.341-.221.744-.221 1.21 0 .478.072.89.217 1.236.145.347.35.615.614.806.267.19.581.285.942.285.241 0 .46-.044.656-.132.199-.091.365-.22.498-.388.137-.167.232-.37.286-.605h1.24a2.405 2.405 0 0 1-.413 1.133c-.23.333-.539.594-.925.785-.384.19-.834.285-1.351.285zm6.873 0c-.645 0-1.201-.138-1.667-.413a2.798 2.798 0 0 1-1.073-1.172c-.25-.506-.375-1.098-.375-1.777 0-.67.125-1.262.375-1.773.252-.511.605-.91 1.056-1.197.455-.287.986-.43 1.594-.43.369 0 .727.06 1.074.183.347.122.658.314.933.575.276.261.493.6.652 1.018.159.415.239.92.239 1.513v.452h-5.203v-.955h3.954c0-.335-.068-.632-.204-.89a1.547 1.547 0 0 0-.576-.618 1.606 1.606 0 0 0-.86-.226c-.358 0-.671.088-.938.264-.264.173-.469.4-.613.682a1.957 1.957 0 0 0-.214.908v.745c0 .438.077.81.231 1.117.156.307.373.541.652.703.278.159.603.239.975.239.242 0 .462-.035.661-.103a1.43 1.43 0 0 0 .516-.315c.144-.14.255-.311.332-.516l1.206.218c-.097.355-.27.666-.52.933-.247.264-.558.47-.933.618a3.492 3.492 0 0 1-1.274.217zm4.222-.132v-6.545h1.231v1.04h.068c.12-.353.33-.63.631-.832a1.805 1.805 0 0 1 1.031-.306 5.38 5.38 0 0 1 .541.03v1.218a2.297 2.297 0 0 0-.272-.047 2.623 2.623 0 0 0-.392-.03c-.302 0-.57.064-.806.192a1.429 1.429 0 0 0-.758 1.283V64h-1.274zm8.047-6.545v1.022h-3.575v-1.022h3.575zm-2.616-1.569h1.274v6.192c0 .247.037.433.111.558a.576.576 0 0 0 .285.252c.119.042.249.064.388.064.102 0 .192-.007.268-.022.077-.014.137-.025.179-.034l.23 1.053a2.494 2.494 0 0 1-.826.136 2.247 2.247 0 0 1-.938-.179 1.606 1.606 0 0 1-.703-.58c-.179-.26-.268-.589-.268-.984v-6.456zM233.521 64v-6.545h1.274V64h-1.274zm.643-7.555a.81.81 0 0 1-.571-.222.721.721 0 0 1-.234-.537c0-.21.078-.39.234-.537a.801.801 0 0 1 .571-.226c.222 0 .411.076.567.226a.706.706 0 0 1 .238.537.714.714 0 0 1-.238.537.795.795 0 0 1-.567.222zm5.46 1.01v1.022h-3.699v-1.022h3.699zM236.939 64v-7.304c0-.41.09-.749.269-1.018.179-.273.416-.476.711-.61.296-.136.617-.204.963-.204.256 0 .475.02.657.064.182.04.316.076.405.11l-.299 1.032a5.847 5.847 0 0 0-.23-.06 1.314 1.314 0 0 0-.341-.038c-.309 0-.531.076-.665.23-.13.153-.196.375-.196.665V64h-1.274zm4 0v-6.545h1.274V64h-1.274zm.643-7.555a.81.81 0 0 1-.571-.222.721.721 0 0 1-.234-.537c0-.21.078-.39.234-.537a.801.801 0 0 1 .571-.226c.222 0 .411.076.567.226a.706.706 0 0 1 .238.537.714.714 0 0 1-.238.537.795.795 0 0 1-.567.222zm5.166 7.687c-.645 0-1.2-.138-1.666-.413a2.806 2.806 0 0 1-1.074-1.172c-.25-.506-.375-1.098-.375-1.777 0-.67.125-1.262.375-1.773.253-.511.605-.91 1.057-1.197.454-.287.985-.43 1.593-.43.37 0 .728.06 1.074.183.347.122.658.314.933.575.276.261.493.6.652 1.018.16.415.239.92.239 1.513v.452h-5.203v-.955h3.955c0-.335-.069-.632-.205-.89a1.545 1.545 0 0 0-.575-.618 1.612 1.612 0 0 0-.861-.226c-.358 0-.671.088-.938.264-.264.173-.468.4-.613.682a1.969 1.969 0 0 0-.213.908v.745c0 .438.076.81.23 1.117.156.307.373.541.652.703.278.159.603.239.976.239.241 0 .461-.035.66-.103a1.37 1.37 0 0 0 .848-.831l1.206.218c-.096.355-.27.666-.52.933-.247.264-.558.47-.933.618a3.492 3.492 0 0 1-1.274.217zm6.672-.004c-.528 0-1-.135-1.415-.405-.412-.273-.735-.66-.971-1.163-.233-.506-.35-1.113-.35-1.82 0-.707.118-1.312.354-1.815.239-.503.565-.888.98-1.155a2.55 2.55 0 0 1 1.411-.4c.406 0 .733.068.98.204.25.133.443.29.579.469.139.179.247.336.324.473h.077v-3.243h1.274V64h-1.244v-1.019h-.107c-.077.14-.187.299-.332.478a1.847 1.847 0 0 1-.588.469c-.25.133-.574.2-.972.2zm.281-1.087c.367 0 .676-.096.929-.29.256-.196.449-.467.58-.813.133-.347.2-.75.2-1.21 0-.455-.065-.853-.196-1.194a1.754 1.754 0 0 0-.575-.797c-.253-.19-.565-.285-.938-.285-.383 0-.703.1-.958.298-.256.199-.449.47-.58.814a3.316 3.316 0 0 0-.192 1.163c0 .438.066.831.196 1.18.131.35.324.627.58.832.258.201.577.302.954.302zm11.012-5.586v1.022h-3.576v-1.022h3.576zm-2.617-1.569h1.274v6.192c0 .247.037.433.111.558a.578.578 0 0 0 .286.252c.119.042.248.064.387.064.103 0 .192-.007.269-.022l.179-.034.23 1.053a2.505 2.505 0 0 1-.827.136 2.242 2.242 0 0 1-.937-.179 1.606 1.606 0 0 1-.703-.58c-.179-.26-.269-.589-.269-.984v-6.456zm6.713 8.246c-.614 0-1.149-.14-1.607-.422a2.847 2.847 0 0 1-1.065-1.18c-.253-.506-.379-1.097-.379-1.773 0-.679.126-1.273.379-1.781a2.841 2.841 0 0 1 1.065-1.185c.458-.281.993-.422 1.607-.422s1.149.14 1.606.422c.458.281.813.676 1.066 1.185.253.508.379 1.102.379 1.781 0 .676-.126 1.267-.379 1.773-.253.505-.608.899-1.066 1.18-.457.282-.992.422-1.606.422zm.004-1.07c.398 0 .727-.105.989-.315.261-.21.454-.49.579-.84.128-.349.192-.734.192-1.154 0-.418-.064-.801-.192-1.15a1.876 1.876 0 0 0-.579-.849c-.262-.213-.591-.32-.989-.32-.4 0-.733.107-.997.32a1.908 1.908 0 0 0-.584.848c-.125.35-.187.733-.187 1.15 0 .421.062.806.187 1.156.128.35.323.629.584.84.264.21.597.315.997.315zm7.226 1.07c-.613 0-1.149-.14-1.606-.422a2.834 2.834 0 0 1-1.065-1.18c-.253-.506-.38-1.097-.38-1.773 0-.679.127-1.273.38-1.781a2.828 2.828 0 0 1 1.065-1.185c.457-.281.993-.422 1.606-.422.614 0 1.15.14 1.607.422.457.281.812.676 1.065 1.185.253.508.38 1.102.38 1.781 0 .676-.127 1.267-.38 1.773-.253.505-.608.899-1.065 1.18-.457.282-.993.422-1.607.422zm.005-1.07c.397 0 .727-.105.988-.315.262-.21.455-.49.58-.84.128-.349.192-.734.192-1.154 0-.418-.064-.801-.192-1.15a1.87 1.87 0 0 0-.58-.849c-.261-.213-.591-.32-.988-.32-.401 0-.733.107-.997.32a1.9 1.9 0 0 0-.584.848c-.125.35-.188.733-.188 1.15 0 .421.063.806.188 1.156.128.35.322.629.584.84.264.21.596.315.997.315zm5.743-7.79V64h-1.274v-8.727h1.274zm6.619 3.78-1.155.205a1.364 1.364 0 0 0-.23-.422 1.139 1.139 0 0 0-.418-.328 1.51 1.51 0 0 0-.66-.128c-.361 0-.662.081-.904.243-.241.16-.362.365-.362.618 0 .219.081.395.243.529.162.133.423.242.784.328l1.04.238c.602.14 1.051.354 1.347.644.295.29.443.666.443 1.129 0 .392-.114.741-.341 1.048-.225.304-.539.543-.942.716-.401.174-.865.26-1.393.26-.733 0-1.331-.156-1.794-.469-.464-.315-.748-.762-.853-1.342l1.232-.188c.077.322.234.564.473.73.238.161.55.242.933.242.418 0 .751-.086 1.001-.26.25-.176.375-.39.375-.643a.667.667 0 0 0-.23-.516c-.15-.14-.382-.244-.694-.315l-1.108-.243c-.611-.14-1.063-.361-1.355-.665-.29-.304-.435-.689-.435-1.155 0-.386.108-.724.324-1.014a2.12 2.12 0 0 1 .895-.677c.38-.165.817-.248 1.308-.248.707 0 1.264.154 1.67.46.407.304.675.712.806 1.224zm3.186 3.755-.064.464a7.42 7.42 0 0 1-.217 1.066c-.099.372-.203.717-.311 1.035a28.7 28.7 0 0 1-.26.759h-.903l.153-.716c.065-.299.129-.632.192-1.002.062-.369.109-.745.14-1.129l.043-.477h1.227zm7.579 3.784c-.52 0-.967-.068-1.342-.205a2.605 2.605 0 0 1-.912-.54 2.28 2.28 0 0 1-.529-.738l1.096-.452c.076.125.179.257.306.397.131.142.307.262.529.362.224.1.513.149.865.149.483 0 .882-.118 1.197-.354.316-.233.473-.605.473-1.116v-1.287h-.081c-.076.139-.187.294-.332.464-.142.17-.338.319-.588.444-.25.124-.575.187-.976.187-.517 0-.983-.12-1.398-.362-.412-.245-.738-.604-.98-1.078-.238-.478-.358-1.064-.358-1.76s.118-1.293.354-1.79c.239-.497.565-.878.98-1.142a2.55 2.55 0 0 1 1.411-.4c.406 0 .734.068.984.204.25.133.445.29.584.469.142.179.251.336.328.473h.094v-1.061h1.248v6.69c0 .562-.13 1.024-.392 1.385-.261.36-.615.628-1.061.801a4.09 4.09 0 0 1-1.5.26zm-.013-3.746c.367 0 .677-.085.929-.255.256-.174.449-.421.58-.742.133-.324.2-.712.2-1.163 0-.44-.065-.829-.196-1.164a1.73 1.73 0 0 0-.575-.784c-.253-.19-.565-.285-.938-.285-.383 0-.703.1-.958.298a1.8 1.8 0 0 0-.58.801 3.18 3.18 0 0 0-.192 1.134c0 .429.066.805.196 1.129.131.324.324.577.58.758.258.182.577.273.954.273zm8.821-1.56v-3.83h1.279V64h-1.253v-1.133h-.068c-.151.349-.392.64-.725.873-.329.23-.74.345-1.231.345-.421 0-.793-.092-1.117-.277a1.94 1.94 0 0 1-.758-.83c-.182-.367-.273-.82-.273-1.36v-4.163h1.274v4.01c0 .445.124.8.371 1.065.247.264.568.396.963.396.239 0 .476-.06.712-.179.238-.12.436-.3.592-.541.159-.242.237-.548.234-.92zm4.896 2.86c-.415 0-.79-.077-1.125-.23a1.89 1.89 0 0 1-.797-.678c-.193-.295-.29-.657-.29-1.086 0-.37.071-.674.213-.912.142-.239.334-.428.575-.567a3.02 3.02 0 0 1 .81-.316c.298-.07.602-.125.912-.161l.954-.111c.245-.031.422-.081.533-.15.111-.067.166-.178.166-.332v-.03c0-.372-.105-.66-.315-.865-.207-.204-.517-.306-.929-.306-.429 0-.767.095-1.014.285-.244.188-.414.396-.507.627l-1.198-.273a2.31 2.31 0 0 1 .622-.963c.276-.247.593-.426.951-.537.358-.114.734-.17 1.129-.17.261 0 .538.03.831.093.295.06.571.17.827.332.258.162.47.394.635.695.164.298.247.686.247 1.163V64h-1.245v-.895h-.051a1.817 1.817 0 0 1-.37.486c-.165.159-.377.291-.635.396a2.468 2.468 0 0 1-.929.158zm.277-1.023c.352 0 .653-.07.903-.209.253-.139.445-.32.575-.545.134-.227.201-.47.201-.729v-.844a.671.671 0 0 1-.265.128c-.127.037-.274.07-.439.098-.164.026-.325.05-.481.073l-.392.05a3.167 3.167 0 0 0-.678.159c-.201.073-.363.18-.485.32-.12.136-.179.317-.179.545 0 .315.116.554.349.715.233.16.53.24.891.24zm4.65.878v-6.545h1.231v1.04h.069a1.58 1.58 0 0 1 .63-.832 1.805 1.805 0 0 1 1.031-.306 5.448 5.448 0 0 1 .542.03v1.218a2.285 2.285 0 0 0-.273-.047 2.613 2.613 0 0 0-.392-.03c-.301 0-.57.064-.805.192a1.422 1.422 0 0 0-.759 1.283V64h-1.274zm6.452.145c-.415 0-.79-.077-1.125-.23a1.89 1.89 0 0 1-.797-.678c-.194-.295-.29-.657-.29-1.086 0-.37.071-.674.213-.912.142-.239.334-.428.575-.567a3.02 3.02 0 0 1 .81-.316c.298-.07.602-.125.912-.161l.954-.111c.245-.031.422-.081.533-.15.111-.067.166-.178.166-.332v-.03c0-.372-.105-.66-.315-.865-.207-.204-.517-.306-.929-.306-.429 0-.767.095-1.014.285-.245.188-.414.396-.507.627l-1.198-.273a2.31 2.31 0 0 1 .622-.963c.276-.247.593-.426.951-.537.358-.114.734-.17 1.129-.17.261 0 .538.03.831.093.295.06.571.17.827.332.258.162.47.394.635.695.164.298.247.686.247 1.163V64h-1.245v-.895h-.051a1.801 1.801 0 0 1-.371.486c-.164.159-.376.291-.634.396a2.468 2.468 0 0 1-.929.158zm.277-1.023c.352 0 .653-.07.903-.209.253-.139.445-.32.575-.545.134-.227.201-.47.201-.729v-.844a.671.671 0 0 1-.265.128c-.128.037-.274.07-.439.098-.164.026-.325.05-.481.073l-.392.05a3.167 3.167 0 0 0-.678.159c-.201.073-.363.18-.486.32-.119.136-.179.317-.179.545 0 .315.117.554.35.715.233.16.53.24.891.24zm5.924-3.008V64h-1.274v-6.545h1.223v1.065h.081c.15-.347.386-.625.707-.835.324-.21.732-.316 1.223-.316.446 0 .837.094 1.172.282.335.184.595.46.78.826.184.367.277.82.277 1.36V64h-1.274v-4.01c0-.474-.124-.845-.371-1.112-.247-.27-.587-.405-1.019-.405-.295 0-.558.064-.788.192a1.377 1.377 0 0 0-.541.562c-.131.245-.196.54-.196.887zm8.953-2.66v1.023h-3.575v-1.022h3.575zm-2.616-1.568h1.274v6.192c0 .247.037.433.11.558.074.122.17.206.286.252.119.042.249.064.388.064.102 0 .192-.007.268-.022.077-.014.137-.025.179-.034l.23 1.053a2.494 2.494 0 0 1-.826.136 2.244 2.244 0 0 1-.938-.179 1.606 1.606 0 0 1-.703-.58c-.179-.26-.268-.589-.268-.984v-6.456zm6.776 8.246c-.645 0-1.2-.138-1.666-.413a2.806 2.806 0 0 1-1.074-1.172c-.25-.506-.375-1.098-.375-1.777 0-.67.125-1.262.375-1.773.253-.511.605-.91 1.057-1.197.454-.287.986-.43 1.594-.43.369 0 .727.06 1.074.183.346.122.657.314.933.575.275.261.493.6.652 1.018.159.415.238.92.238 1.513v.452h-5.203v-.955h3.955c0-.335-.068-.632-.205-.89a1.545 1.545 0 0 0-.575-.618 1.607 1.607 0 0 0-.861-.226c-.358 0-.67.088-.937.264-.264.173-.469.4-.614.682a1.969 1.969 0 0 0-.213.908v.745c0 .438.077.81.23 1.117.156.307.374.541.652.703.279.159.604.239.976.239.241 0 .462-.035.66-.103a1.359 1.359 0 0 0 .848-.831l1.206.218a2.177 2.177 0 0 1-.519.933 2.53 2.53 0 0 1-.934.618 3.492 3.492 0 0 1-1.274.217zm7.043 0c-.645 0-1.2-.138-1.666-.413a2.806 2.806 0 0 1-1.074-1.172c-.25-.506-.375-1.098-.375-1.777 0-.67.125-1.262.375-1.773.253-.511.605-.91 1.057-1.197.454-.287.986-.43 1.594-.43.369 0 .727.06 1.074.183.346.122.657.314.933.575.275.261.493.6.652 1.018.159.415.238.92.238 1.513v.452h-5.203v-.955h3.955c0-.335-.068-.632-.205-.89a1.545 1.545 0 0 0-.575-.618 1.607 1.607 0 0 0-.861-.226c-.358 0-.67.088-.937.264-.265.173-.469.4-.614.682a1.969 1.969 0 0 0-.213.908v.745c0 .438.077.81.23 1.117.156.307.374.541.652.703.278.159.604.239.976.239.241 0 .462-.035.66-.103a1.359 1.359 0 0 0 .848-.831l1.206.218a2.177 2.177 0 0 1-.519.933 2.53 2.53 0 0 1-.934.618 3.492 3.492 0 0 1-1.274.217zm4.222-.132v-6.545h1.274V64h-1.274zm.644-7.555a.81.81 0 0 1-.571-.222.718.718 0 0 1-.235-.537c0-.21.078-.39.235-.537a.801.801 0 0 1 .571-.226c.221 0 .41.076.566.226a.707.707 0 0 1 .239.537c0 .208-.08.386-.239.537a.794.794 0 0 1-.566.222zm3.619 3.669V64h-1.275v-6.545h1.223v1.065h.081c.151-.347.387-.625.708-.835.324-.21.731-.316 1.223-.316.446 0 .836.094 1.172.282.335.184.595.46.779.826.185.367.277.82.277 1.36V64h-1.274v-4.01c0-.474-.123-.845-.37-1.112-.248-.27-.587-.405-1.019-.405-.295 0-.558.064-.788.192a1.37 1.37 0 0 0-.541.562c-.131.245-.196.54-.196.887zm8.642 6.477c-.52 0-.968-.068-1.343-.205a2.605 2.605 0 0 1-.912-.54 2.277 2.277 0 0 1-.528-.738l1.095-.452c.077.125.179.257.307.397a1.6 1.6 0 0 0 .528.362c.225.1.513.149.865.149.483 0 .882-.118 1.198-.354.315-.233.473-.605.473-1.116v-1.287h-.081c-.077.139-.188.294-.333.464-.142.17-.338.319-.588.444-.25.124-.575.187-.975.187-.518 0-.983-.12-1.398-.362-.412-.245-.739-.604-.98-1.078-.239-.478-.358-1.064-.358-1.76s.118-1.293.353-1.79c.239-.497.566-.878.981-1.142.414-.267.884-.4 1.41-.4.406 0 .734.068.984.204.25.133.445.29.584.469.142.179.252.336.328.473h.094v-1.061h1.249v6.69c0 .562-.131 1.024-.392 1.385a2.31 2.31 0 0 1-1.061.801c-.444.173-.944.26-1.5.26zm-.013-3.746c.366 0 .676-.085.929-.255.255-.174.449-.421.579-.742.134-.324.201-.712.201-1.163 0-.44-.066-.829-.196-1.164a1.731 1.731 0 0 0-.576-.784c-.253-.19-.565-.285-.937-.285-.384 0-.703.1-.959.298a1.8 1.8 0 0 0-.58.801 3.203 3.203 0 0 0-.191 1.134c0 .429.065.805.196 1.129.13.324.324.577.579.758.259.182.577.273.955.273zm-255.813 10.61v1.022h-3.575v-1.023h3.575zm-2.617-1.569h1.275v6.192c0 .247.037.433.11.558a.578.578 0 0 0 .286.252c.119.042.248.064.388.064.102 0 .191-.007.268-.022.077-.014.137-.025.179-.034l.23 1.053a2.494 2.494 0 0 1-.826.136 2.244 2.244 0 0 1-.938-.179 1.606 1.606 0 0 1-.703-.58c-.179-.26-.269-.589-.269-.984v-6.456zm5.441 4.228V80h-1.274v-8.727h1.257v3.247h.081a1.88 1.88 0 0 1 .703-.84c.316-.207.727-.31 1.236-.31.449 0 .841.092 1.176.276.338.185.6.46.784.827.188.364.281.818.281 1.364V80h-1.274v-4.01c0-.48-.123-.852-.37-1.116-.248-.267-.591-.401-1.032-.401-.301 0-.571.064-.809.192a1.387 1.387 0 0 0-.559.562c-.133.245-.2.54-.2.887zm8.766 4.018c-.645 0-1.201-.138-1.666-.413a2.806 2.806 0 0 1-1.074-1.172c-.25-.506-.375-1.098-.375-1.777 0-.67.125-1.261.375-1.773.253-.511.605-.91 1.057-1.197.454-.287.985-.43 1.593-.43.37 0 .728.06 1.074.183.347.122.658.314.933.575.276.261.493.6.652 1.018.159.415.239.92.239 1.513v.452h-5.203v-.955h3.954c0-.335-.068-.632-.204-.89a1.545 1.545 0 0 0-.575-.618 1.612 1.612 0 0 0-.861-.226c-.358 0-.671.088-.938.264-.264.173-.468.4-.613.682a1.969 1.969 0 0 0-.213.908v.745c0 .438.076.81.23 1.117.156.307.373.541.652.703.278.159.603.239.976.239.241 0 .461-.034.66-.103a1.37 1.37 0 0 0 .848-.831l1.206.218c-.097.355-.27.666-.52.933-.247.264-.558.47-.933.618a3.492 3.492 0 0 1-1.274.217zm8.672-4.018V80H130.9v-8.727h1.257v3.247h.081c.153-.352.387-.632.703-.84.315-.207.727-.31 1.235-.31.449 0 .841.092 1.177.276.338.185.599.46.784.827.187.364.281.818.281 1.364V80h-1.274v-4.01c0-.48-.124-.852-.371-1.116-.247-.267-.591-.401-1.031-.401a1.69 1.69 0 0 0-.81.192 1.378 1.378 0 0 0-.558.562c-.134.245-.2.54-.2.887zM138.118 80v-6.546h1.274V80h-1.274zm.644-7.555a.81.81 0 0 1-.571-.222.718.718 0 0 1-.235-.537c0-.21.078-.39.235-.537a.801.801 0 0 1 .571-.226c.221 0 .41.076.566.226.16.148.239.327.239.537a.712.712 0 0 1-.239.537.794.794 0 0 1-.566.222zm5.089 10.146c-.52 0-.967-.068-1.342-.205a2.586 2.586 0 0 1-.912-.54 2.28 2.28 0 0 1-.529-.738l1.095-.452c.077.125.179.257.307.397.131.142.307.262.529.362.224.1.512.149.865.149.483 0 .882-.118 1.197-.354.315-.233.473-.605.473-1.116v-1.287h-.081c-.077.139-.187.294-.332.464-.142.17-.338.319-.588.444-.25.124-.576.187-.976.187-.517 0-.983-.12-1.398-.362-.412-.245-.739-.604-.98-1.078-.239-.478-.358-1.064-.358-1.76s.118-1.293.354-1.79c.238-.497.565-.878.98-1.142.415-.267.885-.4 1.41-.4.407 0 .735.067.985.204.25.133.444.29.584.469.142.179.251.336.328.473h.093v-1.062h1.249v6.69c0 .563-.131 1.025-.392 1.386-.261.36-.615.628-1.061.801a4.09 4.09 0 0 1-1.5.26zm-.013-3.746c.367 0 .676-.085.929-.255.256-.174.449-.421.58-.742.133-.324.2-.712.2-1.163 0-.44-.065-.829-.196-1.164a1.737 1.737 0 0 0-.575-.784c-.253-.19-.566-.285-.938-.285-.383 0-.703.1-.959.298a1.798 1.798 0 0 0-.579.801 3.18 3.18 0 0 0-.192 1.134c0 .429.065.805.196 1.129.131.324.324.577.58.758.258.182.576.273.954.273zm5.949-2.731V80h-1.274v-8.727h1.257v3.247h.081a1.88 1.88 0 0 1 .703-.84c.315-.207.727-.31 1.236-.31.449 0 .841.092 1.176.276.338.185.599.46.784.827.188.364.281.818.281 1.364V80h-1.274v-4.01c0-.48-.123-.852-.371-1.116-.247-.267-.591-.401-1.031-.401a1.69 1.69 0 0 0-.81.192 1.39 1.39 0 0 0-.558.562c-.133.245-.2.54-.2.887zm8.766 4.018c-.645 0-1.201-.138-1.667-.413a2.806 2.806 0 0 1-1.074-1.172c-.25-.506-.374-1.098-.374-1.777 0-.67.124-1.261.374-1.773.253-.511.606-.91 1.057-1.197.455-.287.986-.43 1.594-.43.369 0 .727.06 1.074.183.347.122.658.314.933.575.276.261.493.6.652 1.018.159.415.239.92.239 1.513v.452h-5.203v-.955h3.954c0-.335-.068-.632-.204-.89a1.547 1.547 0 0 0-.576-.618 1.606 1.606 0 0 0-.86-.226c-.358 0-.671.088-.938.264-.264.173-.469.4-.614.682a1.969 1.969 0 0 0-.213.908v.745c0 .438.077.81.231 1.117.156.307.373.541.651.703.279.159.604.239.976.239.242 0 .462-.034.661-.103a1.373 1.373 0 0 0 .848-.831l1.206.218c-.097.355-.27.666-.52.933-.247.264-.558.47-.933.618a3.492 3.492 0 0 1-1.274.217zm9.126-5.08-1.154.205a1.367 1.367 0 0 0-.231-.422 1.135 1.135 0 0 0-.417-.328 1.515 1.515 0 0 0-.661-.128c-.361 0-.662.081-.903.243-.242.16-.362.365-.362.618 0 .219.081.395.243.529.161.133.423.242.784.328l1.039.238c.603.14 1.052.354 1.347.644.295.29.443.666.443 1.129 0 .392-.113.741-.341 1.048-.224.304-.538.543-.941.716-.401.174-.866.26-1.394.26-.733 0-1.331-.156-1.794-.469-.463-.315-.747-.762-.852-1.342l1.231-.188c.077.322.235.564.473.73.239.161.55.242.934.242.417 0 .751-.087 1.001-.26.25-.176.375-.39.375-.643a.67.67 0 0 0-.23-.516c-.151-.14-.382-.244-.695-.315l-1.108-.243c-.611-.14-1.062-.361-1.355-.665-.29-.304-.435-.689-.435-1.155 0-.386.108-.724.324-1.014.216-.29.515-.516.895-.677a3.267 3.267 0 0 1 1.308-.248c.708 0 1.265.154 1.671.46.406.305.675.712.805 1.224zm4.584-1.598v1.023h-3.575v-1.023h3.575zm-2.616-1.568h1.274v6.192c0 .247.037.433.111.558a.58.58 0 0 0 .285.252c.12.042.249.064.388.064.103 0 .192-.007.269-.022l.179-.034.23 1.053a2.138 2.138 0 0 1-.316.085 2.486 2.486 0 0 1-.511.051 2.24 2.24 0 0 1-.937-.179 1.609 1.609 0 0 1-.704-.58c-.178-.26-.268-.589-.268-.984v-6.456zm12.107 3.167-1.155.204a1.385 1.385 0 0 0-.23-.422 1.147 1.147 0 0 0-.418-.328 1.512 1.512 0 0 0-.661-.128c-.36 0-.661.081-.903.243-.241.16-.362.365-.362.618 0 .219.081.395.243.529.162.133.423.242.784.328l1.04.238c.602.14 1.051.354 1.346.644.296.29.443.666.443 1.129 0 .392-.113.741-.341 1.048-.224.304-.538.543-.941.716-.401.174-.865.26-1.394.26-.733 0-1.331-.156-1.794-.469-.463-.315-.747-.762-.852-1.342l1.231-.188c.077.322.235.564.473.73.239.161.55.242.934.242.417 0 .751-.087 1.001-.26.25-.176.375-.39.375-.643a.67.67 0 0 0-.23-.516c-.151-.14-.382-.244-.695-.315l-1.108-.243c-.61-.14-1.062-.361-1.355-.665-.289-.304-.434-.689-.434-1.155 0-.386.108-.724.324-1.014.215-.29.514-.516.894-.677a3.269 3.269 0 0 1 1.309-.248c.707 0 1.264.154 1.67.46.406.305.675.712.806 1.224zm4.584-1.599v1.023h-3.576v-1.023h3.576zm-2.617-1.568h1.274v6.192c0 .247.037.433.111.558a.578.578 0 0 0 .286.252c.119.042.248.064.387.064.103 0 .192-.007.269-.022l.179-.034.23 1.053a2.505 2.505 0 0 1-.827.136 2.242 2.242 0 0 1-.937-.179 1.606 1.606 0 0 1-.703-.58c-.179-.26-.269-.589-.269-.984v-6.456zm5.931 8.259c-.415 0-.79-.077-1.125-.23a1.897 1.897 0 0 1-.797-.678c-.193-.295-.29-.657-.29-1.086 0-.37.071-.674.213-.912a1.57 1.57 0 0 1 .576-.567 3 3 0 0 1 .809-.316c.299-.07.603-.124.912-.161l.955-.111c.244-.031.422-.081.533-.15.11-.067.166-.178.166-.332v-.03c0-.372-.105-.66-.316-.865-.207-.204-.517-.306-.929-.306-.429 0-.767.095-1.014.285a1.532 1.532 0 0 0-.507.626l-1.197-.272a2.3 2.3 0 0 1 .622-.963c.275-.248.592-.426.95-.537.358-.114.734-.17 1.129-.17.262 0 .539.03.831.093.296.06.571.17.827.333.259.161.47.393.635.694.165.298.247.686.247 1.163V80h-1.244v-.895h-.051a1.822 1.822 0 0 1-.371.486c-.165.159-.377.291-.635.396a2.464 2.464 0 0 1-.929.158zm.277-1.023c.352 0 .653-.07.903-.209.253-.139.445-.32.576-.545.133-.227.2-.47.2-.729v-.843a.666.666 0 0 1-.264.127c-.128.037-.274.07-.439.098l-.482.073-.392.05a3.143 3.143 0 0 0-.677.159 1.16 1.16 0 0 0-.486.32c-.119.135-.179.317-.179.545 0 .315.116.554.349.715.233.16.53.24.891.24zm5.924-3.008V80h-1.274v-6.546h1.223v1.066h.081c.151-.347.387-.625.708-.835.323-.21.731-.316 1.223-.316.446 0 .836.094 1.171.282.336.184.596.46.78.826.185.367.277.82.277 1.36V80h-1.274v-4.01c0-.474-.123-.845-.371-1.112-.247-.27-.586-.405-1.018-.405-.296 0-.558.064-.788.192a1.379 1.379 0 0 0-.542.562c-.13.245-.196.54-.196.887zm8.348 4.014c-.528 0-1-.135-1.414-.405-.412-.273-.736-.66-.972-1.163-.233-.506-.349-1.113-.349-1.82 0-.707.117-1.312.353-1.815.239-.503.566-.888.98-1.155a2.55 2.55 0 0 1 1.411-.4c.406 0 .733.067.98.204.25.133.443.29.58.469.139.179.247.336.323.473h.077v-3.243h1.274V80H206.2v-1.019h-.107a3.3 3.3 0 0 1-.332.478 1.847 1.847 0 0 1-.588.469c-.25.133-.574.2-.972.2zm.282-1.087c.366 0 .676-.096.929-.29.255-.196.448-.467.579-.814.134-.346.2-.75.2-1.21 0-.454-.065-.852-.196-1.193a1.747 1.747 0 0 0-.575-.797c-.253-.19-.565-.285-.937-.285-.384 0-.704.1-.959.298-.256.199-.449.47-.58.814a3.316 3.316 0 0 0-.192 1.163c0 .438.066.831.197 1.18.13.35.323.627.579.832.259.201.577.302.955.302zm6.685 1.104c-.415 0-.79-.077-1.125-.23a1.89 1.89 0 0 1-.797-.678c-.193-.295-.29-.657-.29-1.086 0-.37.071-.674.213-.912.142-.239.334-.428.575-.567a3.02 3.02 0 0 1 .81-.316c.298-.07.602-.124.912-.161l.954-.111c.245-.031.422-.081.533-.15.111-.067.166-.178.166-.332v-.03c0-.372-.105-.66-.315-.865-.207-.204-.517-.306-.929-.306-.429 0-.767.095-1.014.285-.245.188-.414.396-.507.626l-1.198-.272a2.31 2.31 0 0 1 .622-.963c.276-.248.593-.426.951-.537.358-.114.734-.17 1.129-.17.261 0 .538.03.831.093.295.06.571.17.827.333.258.161.47.393.635.694.164.298.247.686.247 1.163V80h-1.245v-.895h-.051a1.817 1.817 0 0 1-.37.486c-.165.159-.377.291-.635.396a2.468 2.468 0 0 1-.929.158zm.277-1.023c.352 0 .653-.07.903-.209.253-.139.445-.32.575-.545.134-.227.201-.47.201-.729v-.843a.671.671 0 0 1-.265.127c-.127.037-.274.07-.439.098-.164.026-.325.05-.481.073l-.392.05a3.167 3.167 0 0 0-.678.159c-.201.073-.363.18-.485.32-.12.135-.179.317-.179.545 0 .315.116.554.349.715.233.16.53.24.891.24zm4.65.878v-6.546h1.231v1.04h.069a1.58 1.58 0 0 1 .63-.83 1.805 1.805 0 0 1 1.031-.308 5.448 5.448 0 0 1 .542.03v1.22a2.285 2.285 0 0 0-.273-.048 2.613 2.613 0 0 0-.392-.03c-.301 0-.57.064-.806.192a1.426 1.426 0 0 0-.758 1.283V80h-1.274zm6.821.128c-.528 0-1-.135-1.415-.405-.412-.273-.735-.66-.971-1.163-.233-.506-.35-1.113-.35-1.82 0-.707.118-1.312.354-1.815.239-.503.565-.888.98-1.155a2.55 2.55 0 0 1 1.411-.4c.406 0 .733.067.98.204.25.133.443.29.579.469.14.179.248.336.324.473h.077v-3.243h1.274V80h-1.244v-1.019h-.107a3.3 3.3 0 0 1-.332.478 1.847 1.847 0 0 1-.588.469c-.25.133-.574.2-.972.2zm.281-1.087c.367 0 .677-.096.929-.29.256-.196.449-.467.58-.814.133-.346.2-.75.2-1.21 0-.454-.065-.852-.196-1.193a1.747 1.747 0 0 0-.575-.797c-.253-.19-.565-.285-.938-.285-.383 0-.703.1-.958.298-.256.199-.449.47-.58.814a3.316 3.316 0 0 0-.192 1.163c0 .438.066.831.196 1.18.131.35.324.627.58.832.258.201.577.302.954.302zm9.685-3.988-1.154.204a1.385 1.385 0 0 0-.23-.422 1.147 1.147 0 0 0-.418-.328 1.512 1.512 0 0 0-.661-.128c-.36 0-.662.081-.903.243-.241.16-.362.365-.362.618 0 .219.081.395.243.529.162.133.423.242.784.328l1.04.238c.602.14 1.051.354 1.346.644.296.29.443.666.443 1.129 0 .392-.113.741-.341 1.048-.224.304-.538.543-.941.716-.401.174-.865.26-1.394.26-.733 0-1.331-.156-1.794-.469-.463-.315-.747-.762-.852-1.342l1.231-.188c.077.322.235.564.473.73.239.161.55.242.934.242.417 0 .751-.087 1.001-.26.25-.176.375-.39.375-.643a.67.67 0 0 0-.23-.516c-.151-.14-.382-.244-.695-.315l-1.108-.243c-.61-.14-1.062-.361-1.355-.665-.289-.304-.434-.689-.434-1.155 0-.386.108-.724.323-1.014.216-.29.515-.516.895-.677a3.269 3.269 0 0 1 1.309-.248c.707 0 1.264.154 1.67.46.406.305.675.712.805 1.224zm7.462 5.08c-.614 0-1.149-.141-1.606-.423a2.843 2.843 0 0 1-1.066-1.18c-.253-.506-.379-1.097-.379-1.773 0-.679.126-1.273.379-1.781a2.837 2.837 0 0 1 1.066-1.185c.457-.281.992-.422 1.606-.422.614 0 1.149.14 1.607.422.457.281.812.676 1.065 1.185.253.508.379 1.102.379 1.781 0 .676-.126 1.267-.379 1.773-.253.505-.608.899-1.065 1.18-.458.282-.993.422-1.607.422zm.004-1.07c.398 0 .728-.106.989-.316.261-.21.455-.49.58-.84a3.36 3.36 0 0 0 .191-1.154c0-.418-.064-.801-.191-1.15a1.877 1.877 0 0 0-.58-.849c-.261-.213-.591-.32-.989-.32-.4 0-.733.107-.997.32a1.908 1.908 0 0 0-.584.848c-.125.35-.187.733-.187 1.15 0 .421.062.806.187 1.156.128.35.323.629.584.84.264.21.597.314.997.314zm7.585-5.609v1.023h-3.699v-1.023h3.699zM245.248 80v-7.304c0-.41.089-.749.268-1.018a1.65 1.65 0 0 1 .712-.61c.295-.136.616-.204.963-.204.256 0 .474.02.656.064.182.04.317.076.405.11l-.298 1.032a6.953 6.953 0 0 0-.23-.06 1.32 1.32 0 0 0-.341-.038c-.31 0-.531.076-.665.23-.131.153-.196.375-.196.665V80h-1.274zm9.625.128c-.528 0-1-.135-1.415-.405-.411-.273-.735-.66-.971-1.163-.233-.506-.35-1.113-.35-1.82 0-.707.118-1.312.354-1.815.239-.503.565-.888.98-1.155a2.55 2.55 0 0 1 1.411-.4c.406 0 .733.067.98.204.25.133.443.29.579.469.14.179.248.336.324.473h.077v-3.243h1.274V80h-1.244v-1.019h-.107a3.3 3.3 0 0 1-.332.478 1.847 1.847 0 0 1-.588.469c-.25.133-.574.2-.972.2zm.281-1.087c.367 0 .677-.096.929-.29.256-.196.449-.467.58-.814.134-.346.2-.75.2-1.21 0-.454-.065-.852-.196-1.193a1.747 1.747 0 0 0-.575-.797c-.253-.19-.565-.285-.938-.285-.383 0-.703.1-.958.298-.256.199-.449.47-.58.814a3.316 3.316 0 0 0-.192 1.163c0 .438.066.831.196 1.18.131.35.324.627.58.832.258.201.577.302.954.302zm6.685 1.104c-.414 0-.789-.077-1.125-.23a1.894 1.894 0 0 1-.796-.678c-.194-.295-.29-.657-.29-1.086 0-.37.071-.674.213-.912.142-.239.334-.428.575-.567a3.02 3.02 0 0 1 .81-.316c.298-.07.602-.124.912-.161l.954-.111c.245-.031.422-.081.533-.15.111-.067.166-.178.166-.332v-.03c0-.372-.105-.66-.315-.865-.208-.204-.517-.306-.929-.306-.429 0-.767.095-1.014.285-.245.188-.414.396-.507.626l-1.198-.272a2.31 2.31 0 0 1 .622-.963c.276-.248.593-.426.951-.537.358-.114.734-.17 1.129-.17.261 0 .538.03.831.093.295.06.571.17.827.333.258.161.47.393.634.694.165.298.248.686.248 1.163V80h-1.245v-.895h-.051a1.801 1.801 0 0 1-.371.486c-.164.159-.376.291-.635.396a2.46 2.46 0 0 1-.929.158zm.277-1.023c.353 0 .654-.07.904-.209.253-.139.444-.32.575-.545.134-.227.2-.47.2-.729v-.843c-.045.045-.133.087-.264.127-.128.037-.274.07-.439.098-.164.026-.325.05-.481.073l-.392.05a3.167 3.167 0 0 0-.678.159c-.202.073-.363.18-.486.32-.119.135-.179.317-.179.545 0 .315.117.554.35.715.233.16.53.24.89.24zm7.706-5.668v1.023h-3.575v-1.023h3.575zm-2.616-1.568h1.274v6.192c0 .247.037.433.111.558a.576.576 0 0 0 .285.252c.119.042.249.064.388.064.102 0 .192-.007.268-.022.077-.014.137-.025.179-.034l.23 1.053a2.494 2.494 0 0 1-.826.136 2.244 2.244 0 0 1-.938-.179 1.606 1.606 0 0 1-.703-.58c-.179-.26-.268-.589-.268-.984v-6.456zm5.93 8.259c-.414 0-.789-.077-1.125-.23a1.903 1.903 0 0 1-.797-.678c-.193-.295-.289-.657-.289-1.086 0-.37.071-.674.213-.912.142-.239.334-.428.575-.567.242-.14.511-.244.81-.316.298-.07.602-.124.912-.161l.954-.111c.245-.031.422-.081.533-.15.111-.067.166-.178.166-.332v-.03c0-.372-.105-.66-.315-.865-.208-.204-.517-.306-.929-.306-.429 0-.767.095-1.014.285a1.527 1.527 0 0 0-.508.626l-1.197-.272a2.3 2.3 0 0 1 .622-.963c.276-.248.592-.426.95-.537.358-.114.735-.17 1.13-.17.261 0 .538.03.831.093.295.06.571.17.826.333.259.161.471.393.635.694.165.298.247.686.247 1.163V80h-1.244v-.895h-.051a1.801 1.801 0 0 1-.371.486c-.164.159-.376.291-.635.396a2.46 2.46 0 0 1-.929.158zm.277-1.023c.353 0 .654-.07.904-.209.253-.139.444-.32.575-.545.134-.227.2-.47.2-.729v-.843c-.045.045-.133.087-.264.127-.128.037-.274.07-.439.098l-.481.073-.392.05a3.152 3.152 0 0 0-.678.159 1.16 1.16 0 0 0-.486.32c-.119.135-.179.317-.179.545 0 .315.117.554.35.715.233.16.53.24.89.24zm12.731-4.07-1.155.205a1.364 1.364 0 0 0-.23-.422 1.135 1.135 0 0 0-.417-.328 1.518 1.518 0 0 0-.661-.128c-.361 0-.662.081-.903.243-.242.16-.363.365-.363.618 0 .219.081.395.243.529.162.133.424.242.784.328l1.04.238c.603.14 1.051.354 1.347.644.295.29.443.666.443 1.129 0 .392-.114.741-.341 1.048-.224.304-.538.543-.942.716-.4.174-.865.26-1.393.26-.733 0-1.331-.156-1.794-.469-.463-.315-.747-.762-.852-1.342l1.231-.188c.077.322.234.564.473.73.239.161.55.242.933.242.418 0 .752-.087 1.002-.26.25-.176.375-.39.375-.643a.67.67 0 0 0-.23-.516c-.151-.14-.382-.244-.695-.315l-1.108-.243c-.611-.14-1.062-.361-1.355-.665-.29-.304-.435-.689-.435-1.155 0-.386.108-.724.324-1.014a2.12 2.12 0 0 1 .895-.677 3.267 3.267 0 0 1 1.308-.248c.708 0 1.265.154 1.671.46.406.305.674.712.805 1.224zm4.35 5.08c-.645 0-1.2-.138-1.666-.413a2.806 2.806 0 0 1-1.074-1.172c-.25-.506-.375-1.098-.375-1.777 0-.67.125-1.261.375-1.773.253-.511.605-.91 1.057-1.197.454-.287.986-.43 1.593-.43.37 0 .728.06 1.074.183.347.122.658.314.934.575.275.261.492.6.652 1.018.159.415.238.92.238 1.513v.452h-5.203v-.955h3.955c0-.335-.069-.632-.205-.89a1.545 1.545 0 0 0-.575-.618 1.61 1.61 0 0 0-.861-.226c-.358 0-.67.088-.938.264-.264.173-.468.4-.613.682a1.969 1.969 0 0 0-.213.908v.745c0 .438.076.81.23 1.117.156.307.373.541.652.703.278.159.604.239.976.239.241 0 .461-.034.66-.103a1.359 1.359 0 0 0 .848-.831l1.206.218c-.096.355-.27.666-.52.933-.247.264-.558.47-.933.618a3.492 3.492 0 0 1-1.274.217zm6.979 0c-.634 0-1.179-.143-1.636-.43a2.853 2.853 0 0 1-1.049-1.198c-.244-.508-.366-1.09-.366-1.747 0-.665.125-1.251.375-1.76a2.87 2.87 0 0 1 1.057-1.197c.454-.287.99-.43 1.606-.43.497 0 .941.092 1.33.276a2.326 2.326 0 0 1 1.372 1.922h-1.24a1.487 1.487 0 0 0-.469-.792c-.241-.222-.565-.333-.971-.333-.356 0-.667.094-.934.281-.264.185-.47.45-.618.793-.147.341-.221.744-.221 1.21 0 .477.072.89.217 1.236.145.347.35.615.614.806.267.19.581.285.942.285.241 0 .46-.044.656-.132.199-.091.365-.22.498-.388.137-.168.232-.37.286-.605h1.24a2.416 2.416 0 0 1-.413 1.133 2.389 2.389 0 0 1-.925.785c-.384.19-.834.285-1.351.285zm8.198-2.847v-3.83h1.278V80h-1.253v-1.133h-.068c-.15.349-.392.64-.724.873-.33.23-.74.345-1.232.345-.42 0-.792-.092-1.116-.277a1.95 1.95 0 0 1-.759-.83c-.182-.367-.272-.82-.272-1.36v-4.163h1.274v4.01c0 .445.123.8.37 1.065.248.264.569.396.963.396.239 0 .476-.06.712-.179.239-.12.436-.3.592-.541.16-.242.238-.548.235-.92zm2.99 2.715v-6.546h1.232v1.04h.068c.119-.352.329-.629.631-.83a1.803 1.803 0 0 1 1.031-.308 5.445 5.445 0 0 1 .541.03v1.22a2.285 2.285 0 0 0-.273-.048c-.13-.02-.261-.03-.392-.03-.301 0-.569.064-.805.192a1.422 1.422 0 0 0-.759 1.283V80h-1.274zm4.606 0v-6.546h1.274V80h-1.274zm.643-7.555a.81.81 0 0 1-.571-.222.721.721 0 0 1-.234-.537c0-.21.078-.39.234-.537a.803.803 0 0 1 .571-.226c.222 0 .411.076.567.226a.707.707 0 0 1 .239.537c0 .207-.08.386-.239.537a.795.795 0 0 1-.567.222zm5.4 1.01v1.022h-3.575v-1.023h3.575zm-2.616-1.569h1.274v6.192c0 .247.037.433.111.558a.58.58 0 0 0 .285.252c.12.042.249.064.388.064.102 0 .192-.007.269-.022l.179-.034.23 1.053a2.138 2.138 0 0 1-.316.085 2.486 2.486 0 0 1-.511.051 2.247 2.247 0 0 1-.938-.179 1.612 1.612 0 0 1-.703-.58c-.179-.26-.268-.589-.268-.984v-6.456zm4.831 10.569c-.19 0-.363-.016-.52-.047a1.639 1.639 0 0 1-.349-.094l.307-1.044c.233.062.44.09.622.08a.743.743 0 0 0 .481-.204c.142-.127.267-.336.375-.626l.158-.435-2.395-6.63h1.364l1.657 5.08h.069l1.657-5.08h1.368l-2.697 7.419c-.125.34-.284.629-.477.865a1.861 1.861 0 0 1-.691.537 2.26 2.26 0 0 1-.929.178zm11.072-2.31c-.414 0-.789-.077-1.125-.23a1.897 1.897 0 0 1-.797-.678c-.193-.295-.289-.657-.289-1.086 0-.37.071-.674.213-.912.142-.239.334-.428.575-.567.241-.14.511-.244.81-.316.298-.07.602-.124.912-.161l.954-.111c.244-.031.422-.081.533-.15.111-.067.166-.178.166-.332v-.03c0-.372-.105-.66-.315-.865-.208-.204-.517-.306-.929-.306-.429 0-.767.095-1.015.285a1.532 1.532 0 0 0-.507.626l-1.197-.272a2.3 2.3 0 0 1 .622-.963c.276-.248.592-.426.95-.537.358-.114.735-.17 1.13-.17.261 0 .538.03.831.093.295.06.571.17.826.333.259.161.47.393.635.694.165.298.247.686.247 1.163V80h-1.244v-.895h-.051a1.801 1.801 0 0 1-.371.486c-.165.159-.376.291-.635.396a2.46 2.46 0 0 1-.929.158zm.277-1.023c.353 0 .654-.07.904-.209.253-.139.444-.32.575-.545.134-.227.2-.47.2-.729v-.843c-.045.045-.133.087-.264.127-.128.037-.274.07-.439.098l-.481.073-.392.05a3.152 3.152 0 0 0-.678.159 1.16 1.16 0 0 0-.486.32c-.119.135-.179.317-.179.545 0 .315.117.554.35.715.233.16.529.24.89.24zm5.925-3.008V80h-1.274v-6.546h1.223v1.066h.08c.151-.347.387-.625.708-.835.324-.21.731-.316 1.223-.316.446 0 .837.094 1.172.282.335.184.595.46.78.826.184.367.277.82.277 1.36V80h-1.275v-4.01c0-.474-.123-.845-.37-1.112-.247-.27-.587-.405-1.019-.405-.295 0-.558.064-.788.192a1.377 1.377 0 0 0-.541.562c-.131.245-.196.54-.196.887zm8.348 4.014c-.529 0-1-.135-1.415-.405-.412-.273-.736-.66-.972-1.163-.233-.506-.349-1.113-.349-1.82 0-.707.118-1.312.354-1.815.238-.503.565-.888.98-1.155.414-.267.885-.4 1.41-.4.406 0 .733.067.98.204.25.133.443.29.58.469.139.179.247.336.324.473h.076v-3.243h1.275V80h-1.245v-1.019h-.106c-.077.14-.188.299-.333.478a1.847 1.847 0 0 1-.588.469c-.25.133-.574.2-.971.2zm.281-1.087c.366 0 .676-.096.929-.29.256-.196.449-.467.579-.814.134-.346.201-.75.201-1.21a3.34 3.34 0 0 0-.196-1.193 1.756 1.756 0 0 0-.576-.797c-.252-.19-.565-.285-.937-.285-.384 0-.703.1-.959.298-.256.199-.449.47-.579.814a3.316 3.316 0 0 0-.192 1.163c0 .438.065.831.196 1.18.131.35.324.627.579.832.259.201.577.302.955.302zM108.857 98.454v-9h1.244v1.062h.106c.074-.137.181-.294.32-.473.139-.18.332-.336.58-.47.247-.135.573-.204.98-.204.528 0 1 .134 1.414.4.415.268.74.653.976 1.156.239.503.358 1.108.358 1.815 0 .707-.118 1.314-.353 1.82-.236.502-.56.89-.972 1.163-.412.27-.882.405-1.411.405-.397 0-.723-.067-.975-.2a1.847 1.847 0 0 1-.588-.47 3.505 3.505 0 0 1-.329-.477h-.076v3.474h-1.274zm1.248-5.727c0 .46.067.864.2 1.21.134.347.327.618.58.814.253.194.562.29.929.29.381 0 .699-.1.954-.302.256-.205.449-.482.58-.831.134-.35.2-.743.2-1.18 0-.432-.065-.82-.196-1.164a1.785 1.785 0 0 0-.579-.814c-.256-.199-.576-.298-.959-.298-.369 0-.682.095-.938.285-.252.19-.444.456-.575.797-.131.341-.196.739-.196 1.193zM116.263 96v-6.546h1.231v1.04h.068c.12-.352.33-.629.631-.83a1.805 1.805 0 0 1 1.031-.308 5.448 5.448 0 0 1 .542.03v1.22a2.324 2.324 0 0 0-.273-.048 2.613 2.613 0 0 0-.392-.03c-.301 0-.57.064-.806.192a1.42 1.42 0 0 0-.758 1.283V96h-1.274zm4.605 0v-6.546h1.274V96h-1.274zm.644-7.555a.81.81 0 0 1-.571-.222.718.718 0 0 1-.235-.537c0-.21.078-.39.235-.537a.801.801 0 0 1 .571-.226c.221 0 .41.076.566.226.16.148.239.327.239.537a.712.712 0 0 1-.239.537.794.794 0 0 1-.566.222zm7.944 1.01L127.082 96h-1.363l-2.378-6.546h1.368l1.657 5.038h.069l1.653-5.038h1.368zm2.915 6.69c-.415 0-.79-.077-1.125-.23a1.897 1.897 0 0 1-.797-.678c-.193-.295-.29-.657-.29-1.086 0-.37.071-.674.213-.912.142-.239.334-.428.575-.567a3.02 3.02 0 0 1 .81-.316c.298-.07.602-.124.912-.161l.955-.111c.244-.031.421-.081.532-.15.111-.067.166-.178.166-.332v-.03c0-.372-.105-.66-.315-.865-.207-.204-.517-.306-.929-.306-.429 0-.767.095-1.014.285a1.532 1.532 0 0 0-.507.626l-1.198-.272c.142-.398.35-.719.623-.963.275-.248.592-.426.95-.537.358-.114.734-.17 1.129-.17.261 0 .538.03.831.093.296.06.571.17.827.333.258.161.47.393.635.694.164.298.247.686.247 1.163V96h-1.244v-.895h-.052a1.817 1.817 0 0 1-.37.486c-.165.159-.377.291-.635.396a2.464 2.464 0 0 1-.929.158zm.277-1.023c.352 0 .653-.07.903-.209.253-.139.445-.32.575-.545.134-.227.201-.47.201-.729v-.843a.671.671 0 0 1-.265.127 4.09 4.09 0 0 1-.438.098l-.482.073-.392.05a3.167 3.167 0 0 0-.678.159c-.201.073-.363.18-.485.32-.12.135-.179.317-.179.545 0 .315.116.554.349.715.233.16.53.24.891.24zm7.407 1.01c-.633 0-1.179-.143-1.636-.43a2.853 2.853 0 0 1-1.049-1.198c-.244-.508-.366-1.09-.366-1.747 0-.665.125-1.251.375-1.76a2.87 2.87 0 0 1 1.057-1.197c.454-.287.99-.43 1.606-.43.497 0 .941.092 1.33.276.389.182.703.438.942.767.241.33.385.715.43 1.155h-1.24a1.487 1.487 0 0 0-.469-.792c-.241-.222-.565-.333-.971-.333-.356 0-.667.094-.934.281-.264.185-.47.45-.618.793-.147.341-.221.744-.221 1.21 0 .477.072.89.217 1.236.145.347.35.615.614.806.267.19.581.285.942.285.241 0 .46-.044.656-.132.199-.091.365-.22.498-.388.137-.168.232-.37.286-.605h1.24a2.405 2.405 0 0 1-.413 1.133 2.389 2.389 0 0 1-.925.785c-.384.19-.834.285-1.351.285zm4.857 2.322a2.664 2.664 0 0 1-.869-.14l.306-1.044c.233.062.441.09.623.08a.746.746 0 0 0 .481-.204c.142-.127.267-.336.375-.626l.158-.435-2.395-6.63h1.364l1.657 5.08h.068l1.658-5.08h1.368l-2.697 7.419c-.125.34-.285.629-.478.865a1.85 1.85 0 0 1-.69.537 2.26 2.26 0 0 1-.929.178zm6.421-2.373a.828.828 0 0 1-.601-.247.824.824 0 0 1-.252-.605c0-.233.084-.432.252-.597a.82.82 0 0 1 .601-.251.82.82 0 0 1 .601.251.808.808 0 0 1 .251.597c0 .156-.04.3-.119.43a.883.883 0 0 1-.307.307.813.813 0 0 1-.426.115z" fill="#707070"/>
        <path d="M114.408 18.746c-.039-.4-.21-.712-.512-.934-.301-.222-.711-.333-1.228-.333-.351 0-.648.05-.89.149-.242.096-.427.23-.556.402a.97.97 0 0 0-.189.587.834.834 0 0 0 .114.477c.086.136.204.254.353.353.149.097.321.181.517.254.196.07.404.13.626.179l.915.219c.444.1.852.232 1.223.397.371.166.693.37.965.612s.482.527.631.855c.153.328.23.704.234 1.129-.004.623-.163 1.163-.477 1.62-.312.454-.763.807-1.353 1.06-.586.248-1.294.372-2.123.372-.822 0-1.537-.126-2.147-.378-.607-.252-1.081-.624-1.422-1.118-.338-.497-.516-1.112-.532-1.845h2.083c.023.342.121.627.293.855.176.226.41.396.701.512.295.113.628.17 1 .17.364 0 .681-.053.949-.16.272-.106.482-.253.631-.442.15-.189.224-.406.224-.651a.846.846 0 0 0-.204-.577c-.132-.156-.328-.288-.586-.398a5.97 5.97 0 0 0-.94-.298l-1.109-.279c-.858-.208-1.536-.535-2.033-.979-.497-.444-.744-1.042-.741-1.795-.003-.616.161-1.155.492-1.615.335-.461.794-.82 1.378-1.08.583-.258 1.246-.387 1.988-.387.756 0 1.415.13 1.979.388.567.258 1.008.618 1.322 1.079.315.46.478.994.488 1.6h-2.064zm5.789 7.398a3.18 3.18 0 0 1-1.303-.253 2.098 2.098 0 0 1-.905-.761c-.219-.338-.328-.759-.328-1.263 0-.424.078-.78.234-1.069.155-.288.368-.52.636-.696.269-.175.573-.308.915-.398.345-.089.706-.152 1.084-.188.444-.047.802-.09 1.074-.13.271-.043.469-.106.591-.189a.414.414 0 0 0 .184-.367v-.03c0-.315-.099-.559-.298-.731-.196-.172-.474-.259-.835-.259-.382 0-.685.085-.91.254a1.165 1.165 0 0 0-.448.626l-1.958-.159c.099-.464.294-.865.586-1.203a2.817 2.817 0 0 1 1.129-.785c.464-.186 1.001-.279 1.611-.279.424 0 .83.05 1.218.15.391.099.737.253 1.039.462.305.208.545.477.72.805.176.325.264.714.264 1.168V26h-2.009v-1.059h-.059c-.123.239-.287.45-.492.631-.206.18-.453.32-.741.423-.289.1-.622.15-.999.15zm.606-1.461c.312 0 .587-.062.825-.184.239-.126.426-.295.562-.508.136-.212.204-.452.204-.72v-.81a1.123 1.123 0 0 1-.273.119 5.05 5.05 0 0 1-.383.094c-.143.027-.285.051-.428.075l-.388.054a2.624 2.624 0 0 0-.651.174c-.185.08-.33.188-.432.323a.786.786 0 0 0-.155.498c0 .288.105.508.314.66.212.15.48.225.805.225zm9.444-6.32v1.591h-4.713v-1.59h4.713zM126.612 26v-8.188c0-.554.108-1.013.324-1.377.218-.365.517-.638.894-.82a2.929 2.929 0 0 1 1.288-.274c.325 0 .622.025.89.075.272.05.474.094.607.134l-.378 1.59a2.657 2.657 0 0 0-.309-.074 1.919 1.919 0 0 0-.367-.035c-.312 0-.529.073-.652.219-.122.142-.184.343-.184.602V26h-2.113zm8.135.15c-.785 0-1.461-.16-2.028-.478a3.267 3.267 0 0 1-1.303-1.362c-.305-.59-.457-1.288-.457-2.093 0-.786.152-1.475.457-2.069a3.38 3.38 0 0 1 1.288-1.387c.557-.331 1.21-.497 1.959-.497.503 0 .972.081 1.407.244.437.159.818.4 1.143.72.328.322.583.726.766 1.214.182.484.273 1.05.273 1.7v.582h-6.448V21.41h4.455c0-.305-.067-.575-.199-.81a1.43 1.43 0 0 0-.552-.552 1.574 1.574 0 0 0-.811-.204 1.63 1.63 0 0 0-.855.224 1.567 1.567 0 0 0-.576.591 1.66 1.66 0 0 0-.214.82v1.249c0 .378.069.704.209.98.142.274.343.486.601.636.259.149.565.223.92.223.235 0 .451-.033.646-.1a1.29 1.29 0 0 0 .821-.786l1.958.13c-.099.471-.303.882-.611 1.233a3.07 3.07 0 0 1-1.183.816c-.481.192-1.036.288-1.666.288zm8.328 2.873c-.687 0-1.275-.095-1.765-.284-.488-.185-.875-.439-1.164-.76a2.34 2.34 0 0 1-.561-1.084l1.958-.264c.06.153.154.295.284.428.129.133.3.239.512.318.215.083.477.124.785.124.461 0 .84-.112 1.139-.338.301-.222.452-.595.452-1.118v-1.397h-.089a2.01 2.01 0 0 1-.418.601 2.105 2.105 0 0 1-.716.463c-.291.119-.639.179-1.044.179a3.137 3.137 0 0 1-1.566-.398c-.467-.269-.84-.678-1.119-1.228-.275-.554-.412-1.253-.412-2.098 0-.865.141-1.588.422-2.168.282-.58.657-1.014 1.124-1.302a2.905 2.905 0 0 1 1.546-.433c.428 0 .786.073 1.074.219.288.142.52.322.696.537.179.212.317.42.413.626h.079v-1.282h2.103v7.71c0 .65-.159 1.194-.477 1.631-.318.438-.759.766-1.322.985-.561.222-1.205.333-1.934.333zm.044-4.723c.342 0 .63-.085.865-.254.239-.172.421-.417.547-.736.13-.321.194-.706.194-1.153 0-.448-.063-.835-.189-1.163-.126-.332-.308-.589-.547-.771a1.388 1.388 0 0 0-.87-.273c-.348 0-.641.094-.88.283a1.709 1.709 0 0 0-.542.776 3.315 3.315 0 0 0-.184 1.148c0 .44.062.822.184 1.143.126.319.307.566.542.741.239.172.532.259.88.259zm10.272-1.551v-4.385h2.118V26h-2.034v-1.387h-.079a2.259 2.259 0 0 1-.86 1.079c-.398.271-.884.407-1.457.407-.511 0-.96-.116-1.347-.348a2.387 2.387 0 0 1-.91-.989c-.216-.428-.325-.94-.328-1.536v-4.862h2.118v4.484c.003.45.124.807.362 1.069.239.262.559.393.96.393.255 0 .494-.058.716-.174.222-.12.401-.295.537-.527.139-.232.207-.519.204-.86zm5.989 3.395c-.487 0-.921-.084-1.302-.253a2.092 2.092 0 0 1-.905-.761c-.219-.338-.328-.759-.328-1.263 0-.424.078-.78.233-1.069a1.89 1.89 0 0 1 .637-.696 3.08 3.08 0 0 1 .914-.398c.345-.089.706-.152 1.084-.188.444-.047.802-.09 1.074-.13.272-.043.469-.106.592-.189a.416.416 0 0 0 .184-.367v-.03c0-.315-.1-.559-.299-.731-.195-.172-.474-.259-.835-.259-.381 0-.684.085-.91.254a1.168 1.168 0 0 0-.447.626l-1.959-.159c.1-.464.295-.865.587-1.203a2.814 2.814 0 0 1 1.128-.785c.464-.186 1.001-.279 1.611-.279.424 0 .83.05 1.218.15.391.099.738.253 1.039.462.305.208.545.477.721.805.176.325.264.714.264 1.168V26h-2.009v-1.059h-.06c-.122.239-.286.45-.492.631-.205.18-.452.32-.741.423-.288.1-.621.15-.999.15zm.607-1.461c.311 0 .586-.062.825-.184.239-.126.426-.295.562-.508.136-.212.204-.452.204-.72v-.81a1.15 1.15 0 0 1-.274.119c-.113.033-.24.064-.383.094-.142.027-.285.051-.427.075l-.388.054a2.6 2.6 0 0 0-.651.174c-.186.08-.33.188-.433.323a.786.786 0 0 0-.154.498c0 .288.104.508.313.66.212.15.481.225.806.225zM165.324 26v-7.636h2.053v1.332h.079c.14-.474.373-.832.701-1.074a1.845 1.845 0 0 1 1.134-.368 3.223 3.223 0 0 1 .666.075v1.88a2.766 2.766 0 0 0-.412-.08 3.72 3.72 0 0 0-.483-.035c-.311 0-.59.068-.835.204a1.505 1.505 0 0 0-.577.556 1.61 1.61 0 0 0-.208.826V26h-2.118zm8.187.124c-.58 0-1.106-.149-1.576-.447-.468-.302-.839-.744-1.114-1.328-.272-.586-.408-1.305-.408-2.157 0-.875.141-1.603.423-2.183.282-.583.656-1.019 1.124-1.307.47-.292.986-.438 1.546-.438.427 0 .784.073 1.069.219.288.142.52.322.696.537.179.212.314.42.407.626h.065v-3.828h2.113V26h-2.088v-1.223h-.09c-.099.212-.24.423-.422.631a2.104 2.104 0 0 1-.701.512c-.285.136-.633.204-1.044.204zm.671-1.685c.341 0 .63-.093.865-.279.239-.188.421-.452.547-.79.129-.338.194-.734.194-1.188 0-.454-.063-.849-.189-1.183-.126-.335-.309-.594-.547-.776a1.392 1.392 0 0 0-.87-.273c-.348 0-.642.094-.88.283-.239.189-.419.45-.542.785a3.365 3.365 0 0 0-.184 1.164c0 .444.061.837.184 1.178.126.338.307.603.542.796.238.189.532.283.88.283zm8.895 1.71c-.785 0-1.461-.159-2.028-.477a3.267 3.267 0 0 1-1.303-1.362c-.305-.59-.457-1.288-.457-2.093 0-.786.152-1.475.457-2.069a3.38 3.38 0 0 1 1.288-1.387c.557-.331 1.21-.497 1.959-.497.504 0 .972.081 1.407.244.437.159.818.4 1.143.72.328.322.583.726.766 1.214.182.484.273 1.05.273 1.7v.582h-6.448V21.41h4.455c0-.305-.067-.575-.199-.81a1.43 1.43 0 0 0-.552-.552 1.573 1.573 0 0 0-.81-.204c-.322 0-.607.075-.856.224a1.567 1.567 0 0 0-.576.591 1.66 1.66 0 0 0-.214.82v1.249c0 .378.07.704.209.98.142.274.343.486.601.636.259.149.565.223.92.223.235 0 .451-.033.646-.1a1.29 1.29 0 0 0 .821-.786l1.958.13c-.099.471-.303.882-.611 1.233a3.07 3.07 0 0 1-1.183.816c-.481.192-1.036.288-1.666.288zm7.701-.025c-.58 0-1.105-.149-1.576-.447-.467-.302-.838-.744-1.113-1.328-.272-.586-.408-1.305-.408-2.157 0-.875.141-1.603.423-2.183.281-.583.656-1.019 1.123-1.307a2.88 2.88 0 0 1 1.546-.438c.428 0 .784.073 1.069.219.289.142.521.322.696.537.179.212.315.42.408.626h.064v-3.828h2.113V26h-2.088v-1.223h-.089c-.1.212-.24.423-.423.631a2.094 2.094 0 0 1-.701.512c-.285.136-.633.204-1.044.204zm.671-1.685c.342 0 .63-.093.865-.279.239-.188.421-.452.547-.79.13-.338.194-.734.194-1.188 0-.454-.063-.849-.189-1.183-.126-.335-.308-.594-.547-.776a1.388 1.388 0 0 0-.87-.273c-.348 0-.641.094-.88.283-.238.189-.419.45-.541.785a3.365 3.365 0 0 0-.184 1.164c0 .444.061.837.184 1.178.125.338.306.603.541.796.239.189.532.283.88.283zM200.145 26V15.818h2.118v3.828h.064c.093-.205.227-.414.403-.626.179-.215.411-.395.696-.537.288-.146.646-.219 1.074-.219.557 0 1.07.146 1.541.438.471.288.847.724 1.129 1.307.281.58.422 1.308.422 2.183 0 .852-.137 1.57-.412 2.157-.272.584-.643 1.026-1.114 1.328a2.858 2.858 0 0 1-1.571.447c-.411 0-.761-.068-1.049-.203a2.167 2.167 0 0 1-.701-.513 2.608 2.608 0 0 1-.418-.631h-.094V26h-2.088zm2.073-3.818c0 .454.063.85.189 1.188.126.338.308.602.547.79.238.186.528.279.87.279.344 0 .636-.095.875-.284.238-.192.419-.457.542-.795.126-.341.189-.734.189-1.178 0-.441-.062-.829-.184-1.163a1.74 1.74 0 0 0-.542-.786c-.239-.189-.532-.283-.88-.283-.345 0-.637.09-.875.273-.236.182-.416.44-.542.776-.126.334-.189.729-.189 1.183zm7.849 6.682c-.269 0-.521-.022-.756-.065a2.764 2.764 0 0 1-.577-.154l.478-1.581c.248.076.472.118.671.124a.853.853 0 0 0 .522-.139c.149-.1.27-.268.363-.507l.124-.323-2.739-7.855h2.227l1.581 5.608h.079l1.596-5.608h2.243l-2.968 8.461a3.57 3.57 0 0 1-.582 1.074 2.386 2.386 0 0 1-.92.711c-.371.17-.819.254-1.342.254zM223.852 26h-3.61V15.818h3.64c1.024 0 1.905.204 2.644.612.74.404 1.308.986 1.706 1.745.401.759.601 1.667.601 2.724 0 1.06-.2 1.972-.601 2.735a4.14 4.14 0 0 1-1.715 1.755c-.743.407-1.631.611-2.665.611zm-1.457-1.845h1.367c.637 0 1.172-.112 1.606-.338a2.17 2.17 0 0 0 .984-1.058c.223-.481.334-1.1.334-1.86 0-.752-.111-1.367-.334-1.844a2.153 2.153 0 0 0-.979-1.054c-.434-.226-.969-.338-1.606-.338h-1.372v6.492zm11.473 1.994c-.785 0-1.461-.159-2.028-.477a3.267 3.267 0 0 1-1.303-1.362c-.305-.59-.457-1.288-.457-2.093 0-.786.152-1.475.457-2.069a3.38 3.38 0 0 1 1.288-1.387c.557-.331 1.21-.497 1.959-.497.504 0 .973.081 1.407.244.437.159.818.4 1.143.72.328.322.583.726.766 1.214.182.484.273 1.05.273 1.7v.582h-6.448V21.41h4.455c0-.305-.067-.575-.199-.81a1.43 1.43 0 0 0-.552-.552 1.573 1.573 0 0 0-.81-.204c-.322 0-.607.075-.856.224a1.567 1.567 0 0 0-.576.591 1.67 1.67 0 0 0-.214.82v1.249c0 .378.07.704.209.98.142.274.343.486.601.636.259.149.565.223.92.223.235 0 .451-.033.646-.1a1.29 1.29 0 0 0 .821-.786l1.958.13c-.099.471-.303.882-.611 1.233a3.07 3.07 0 0 1-1.183.816c-.481.192-1.036.288-1.666.288zm11.802-7.785L243 26h-2.387l-2.669-7.636h2.237l1.586 5.463h.079l1.581-5.463h2.243zM246.753 26v-7.636h2.118V26h-2.118zm1.064-8.62c-.315 0-.585-.105-.81-.314a1.016 1.016 0 0 1-.333-.76c0-.292.111-.543.333-.751a1.14 1.14 0 0 1 .81-.319c.315 0 .584.107.806.319a.99.99 0 0 1 .338.75c0 .295-.113.549-.338.761a1.134 1.134 0 0 1-.806.313zm6.201 8.77c-.782 0-1.455-.167-2.018-.498a3.365 3.365 0 0 1-1.293-1.392c-.298-.593-.447-1.276-.447-2.048 0-.782.15-1.469.452-2.059a3.357 3.357 0 0 1 1.298-1.387c.56-.334 1.226-.502 1.998-.502.666 0 1.25.121 1.75.363.501.242.897.582 1.188 1.02.292.437.453.95.483 1.54h-1.999c-.056-.38-.205-.687-.447-.92-.239-.235-.552-.352-.94-.352-.328 0-.615.09-.86.268-.242.176-.431.433-.567.77-.136.339-.204.748-.204 1.229 0 .487.067.901.199 1.243.136.341.327.601.572.78.245.18.532.269.86.269.242 0 .459-.05.651-.15.196-.099.357-.243.482-.432.13-.192.214-.422.254-.691h1.999c-.034.583-.193 1.097-.478 1.541-.281.441-.671.786-1.168 1.034-.497.249-1.085.373-1.765.373zm8.247 0c-.786 0-1.462-.16-2.029-.478a3.27 3.27 0 0 1-1.302-1.362c-.305-.59-.458-1.288-.458-2.093 0-.786.153-1.475.458-2.069a3.383 3.383 0 0 1 1.287-1.387c.557-.331 1.21-.497 1.959-.497.504 0 .973.081 1.407.244.438.159.819.4 1.144.72.328.322.583.726.765 1.214.183.484.274 1.05.274 1.7v.582h-6.448V21.41h4.454c0-.305-.066-.575-.199-.81a1.416 1.416 0 0 0-.552-.552 1.573 1.573 0 0 0-.81-.204c-.321 0-.607.075-.855.224a1.57 1.57 0 0 0-.577.591 1.68 1.68 0 0 0-.214.82v1.249c0 .378.07.704.209.98.143.274.343.486.602.636.258.149.565.223.92.223.235 0 .45-.033.646-.1.195-.066.363-.165.502-.297a1.3 1.3 0 0 0 .318-.488l1.959.13c-.099.47-.303.881-.612 1.233-.304.348-.699.62-1.183.815-.48.192-1.036.288-1.665.288zm10.45-7.404c-.04-.4-.21-.712-.512-.934-.302-.222-.711-.333-1.228-.333-.351 0-.648.05-.89.149-.242.096-.428.23-.557.402a.97.97 0 0 0-.189.587.842.842 0 0 0 .115.477c.086.136.203.254.353.353.149.097.321.181.517.254.195.07.404.13.626.179l.915.219c.444.1.852.232 1.223.397.371.166.693.37.964.612.272.242.483.527.632.855.152.328.23.704.233 1.129-.003.623-.162 1.163-.477 1.62-.311.454-.762.807-1.352 1.06-.587.248-1.294.372-2.123.372-.822 0-1.538-.126-2.148-.378-.606-.252-1.08-.624-1.422-1.118-.338-.497-.515-1.112-.532-1.845h2.084c.023.342.121.627.293.855.176.226.409.396.701.512.295.113.628.17.999.17.365 0 .681-.053.95-.16.272-.106.482-.253.631-.442.149-.189.224-.406.224-.651a.846.846 0 0 0-.204-.577c-.133-.156-.328-.288-.587-.398a5.955 5.955 0 0 0-.939-.298l-1.109-.279c-.858-.208-1.536-.535-2.033-.979-.497-.444-.744-1.042-.741-1.795-.003-.616.161-1.155.492-1.615.335-.461.794-.82 1.377-1.08.584-.258 1.246-.387 1.989-.387.756 0 1.415.13 1.979.388.566.258 1.007.618 1.322 1.079.315.46.477.994.487 1.6h-2.063zm5.788 7.398c-.487 0-.921-.084-1.302-.253a2.092 2.092 0 0 1-.905-.761c-.219-.338-.328-.759-.328-1.263 0-.424.078-.78.233-1.069a1.89 1.89 0 0 1 .637-.696 3.08 3.08 0 0 1 .914-.398c.345-.089.706-.152 1.084-.188.444-.047.802-.09 1.074-.13.272-.043.469-.106.592-.189a.416.416 0 0 0 .184-.367v-.03c0-.315-.1-.559-.299-.731-.195-.172-.474-.259-.835-.259-.381 0-.684.085-.91.254a1.168 1.168 0 0 0-.447.626l-1.959-.159c.1-.464.295-.865.587-1.203a2.814 2.814 0 0 1 1.128-.785c.464-.186 1.001-.279 1.611-.279.424 0 .83.05 1.218.15.391.099.738.253 1.039.462.305.208.545.477.721.805.176.325.264.714.264 1.168V26h-2.009v-1.059h-.06c-.122.239-.286.45-.492.631-.205.18-.452.32-.741.423-.288.1-.621.15-.999.15zm.607-1.461c.311 0 .586-.062.825-.184.239-.126.426-.295.562-.508.136-.212.204-.452.204-.72v-.81a1.15 1.15 0 0 1-.274.119c-.112.033-.24.064-.383.094-.142.027-.285.051-.427.075l-.388.054a2.6 2.6 0 0 0-.651.174c-.186.08-.33.188-.433.323a.786.786 0 0 0-.154.498c0 .288.105.508.313.66.212.15.481.225.806.225zm9.443-6.32v1.591h-4.713v-1.59h4.713zM284.919 26v-8.188c0-.554.108-1.013.323-1.377.219-.365.517-.638.895-.82a2.929 2.929 0 0 1 1.288-.274c.325 0 .621.025.89.075.271.05.474.094.606.134l-.378 1.59a2.635 2.635 0 0 0-.308-.074 1.921 1.921 0 0 0-.368-.035c-.311 0-.528.073-.651.219-.123.142-.184.343-.184.602V26h-2.113zm8.135.15c-.786 0-1.462-.16-2.029-.478a3.27 3.27 0 0 1-1.302-1.362c-.305-.59-.458-1.288-.458-2.093 0-.786.153-1.475.458-2.069a3.383 3.383 0 0 1 1.287-1.387c.557-.331 1.21-.497 1.959-.497.504 0 .973.081 1.407.244.438.159.819.4 1.144.72.328.322.583.726.765 1.214.183.484.274 1.05.274 1.7v.582h-6.448V21.41h4.454c0-.305-.066-.575-.199-.81a1.416 1.416 0 0 0-.552-.552 1.573 1.573 0 0 0-.81-.204 1.63 1.63 0 0 0-.855.224 1.57 1.57 0 0 0-.577.591 1.68 1.68 0 0 0-.214.82v1.249c0 .378.07.704.209.98.143.274.343.486.602.636.258.149.565.223.92.223.235 0 .45-.033.646-.1.195-.066.363-.165.502-.297a1.3 1.3 0 0 0 .318-.488l1.959.13c-.099.47-.303.881-.611 1.233-.305.348-.7.62-1.184.815-.48.192-1.035.288-1.665.288zm8.949-7.786v1.59h-4.599v-1.59h4.599zm-3.555-1.83h2.118v7.12c0 .195.03.347.089.457.06.106.143.18.249.223.109.044.235.065.378.065.099 0 .199-.008.298-.025l.229-.044.333 1.576a5.856 5.856 0 0 1-.448.114 3.573 3.573 0 0 1-.701.084c-.51.02-.957-.048-1.342-.203a1.874 1.874 0 0 1-.89-.726c-.212-.328-.316-.743-.313-1.243v-7.398zm6.242 12.33c-.269 0-.521-.022-.756-.065a2.764 2.764 0 0 1-.577-.154l.478-1.581c.248.076.472.118.671.124a.853.853 0 0 0 .522-.139c.149-.1.27-.268.363-.507l.124-.323-2.739-7.855h2.227l1.581 5.608h.08l1.595-5.608h2.243l-2.968 8.461a3.57 3.57 0 0 1-.582 1.074 2.386 2.386 0 0 1-.92.711c-.371.17-.819.254-1.342.254zm7.655-2.735a1.16 1.16 0 0 1-.845-.348 1.161 1.161 0 0 1-.348-.845c0-.325.116-.603.348-.835a1.16 1.16 0 0 1 .845-.348c.318 0 .596.116.835.348.239.232.358.51.358.835 0 .219-.056.42-.169.602a1.284 1.284 0 0 1-.433.432c-.179.106-.376.16-.591.16zm6.382.02c-.772 0-1.44-.164-2.003-.492a3.365 3.365 0 0 1-1.298-1.382c-.305-.593-.457-1.281-.457-2.063 0-.79.152-1.479.457-2.069a3.324 3.324 0 0 1 1.298-1.382c.563-.331 1.231-.497 2.003-.497s1.439.166 1.999.497a3.32 3.32 0 0 1 1.302 1.383c.305.59.458 1.279.458 2.068 0 .782-.153 1.47-.458 2.063a3.361 3.361 0 0 1-1.302 1.382c-.56.328-1.227.492-1.999.492zm.01-1.64c.351 0 .645-.1.88-.299a1.85 1.85 0 0 0 .532-.825c.123-.348.184-.744.184-1.188 0-.444-.061-.84-.184-1.188a1.85 1.85 0 0 0-.532-.826c-.235-.202-.529-.303-.88-.303-.355 0-.653.101-.895.303a1.874 1.874 0 0 0-.542.826 3.663 3.663 0 0 0-.179 1.188c0 .444.06.84.179 1.188.123.348.304.623.542.825.242.2.54.299.895.299zM323.863 26v-7.636h2.053v1.332h.08c.139-.474.372-.832.701-1.074a1.842 1.842 0 0 1 1.133-.368 3.223 3.223 0 0 1 .666.075v1.88a2.766 2.766 0 0 0-.412-.08 3.72 3.72 0 0 0-.483-.035c-.311 0-.59.068-.835.204a1.505 1.505 0 0 0-.577.556 1.61 1.61 0 0 0-.208.826V26h-2.118zm8.813 3.023c-.686 0-1.274-.095-1.765-.284-.487-.185-.875-.439-1.163-.76a2.341 2.341 0 0 1-.562-1.084l1.959-.264c.06.153.154.295.283.428.13.133.3.239.512.318a2.2 2.2 0 0 0 .786.124c.461 0 .84-.112 1.138-.338.302-.222.453-.595.453-1.118v-1.397h-.09a2.025 2.025 0 0 1-1.133 1.064c-.292.119-.64.179-1.044.179a3.132 3.132 0 0 1-1.566-.398c-.468-.269-.841-.678-1.119-1.228-.275-.554-.413-1.253-.413-2.098 0-.865.141-1.588.423-2.168.282-.58.656-1.014 1.124-1.302.47-.289.986-.433 1.546-.433.427 0 .785.073 1.074.219.288.142.52.322.696.537.179.212.316.42.412.626h.08v-1.282h2.103v7.71c0 .65-.159 1.194-.477 1.631-.319.438-.759.766-1.323.985-.56.222-1.205.333-1.934.333zm.045-4.723c.341 0 .63-.085.865-.254.239-.172.421-.417.547-.736.129-.321.194-.706.194-1.153 0-.448-.063-.835-.189-1.163-.126-.332-.308-.589-.547-.771a1.392 1.392 0 0 0-.87-.273c-.348 0-.641.094-.88.283a1.701 1.701 0 0 0-.542.776 3.292 3.292 0 0 0-.184 1.148c0 .44.061.822.184 1.143.126.319.307.566.542.741.239.172.532.259.88.259zM29.236 72.563l-1.102-1.589 4.48-3.11 1.112 1.601c.313.45.492.901.539 1.35a2.21 2.21 0 0 1-.247 1.284c-.212.409-.55.774-1.015 1.097-.467.325-.93.515-1.387.571a2.214 2.214 0 0 1-1.297-.218c-.406-.203-.767-.531-1.083-.986zm.367-1.205.417.602c.195.28.408.48.64.603.234.123.49.16.767.11.279-.05.586-.19.92-.422.33-.23.567-.466.71-.71.143-.242.198-.493.164-.753-.033-.26-.147-.53-.342-.81l-.419-.603-2.857 1.983zM31.89 76.032l3.873-3.84 2.588 2.61-.675.67L35.9 73.68l-.923.915 1.643 1.656-.675.67-1.643-1.657-.925.917 1.783 1.798-.675.67-2.595-2.618zM39.7 75.894l-1.3 4.151.042.03 3.46-2.637 1.047.734-4.67 3.388-1.218-.853 1.59-5.548 1.048.735zM44.57 78.894l-2.498 4.85-1.026-.528 2.498-4.85 1.025.528zM49.2 82.72l-1.101-.386c.03-.15.033-.29.01-.423a1.021 1.021 0 0 0-.139-.37 1.115 1.115 0 0 0-.273-.299 1.366 1.366 0 0 0-.388-.206 1.294 1.294 0 0 0-.766-.046 1.343 1.343 0 0 0-.66.412c-.197.211-.358.495-.483.852-.128.367-.182.695-.16.983.022.288.11.53.264.727.153.197.359.34.619.432.145.05.287.079.425.084a1.027 1.027 0 0 0 .73-.24 1.13 1.13 0 0 0 .265-.32l1.099.39a2.178 2.178 0 0 1-1.114 1.035c-.25.105-.523.162-.821.17a2.641 2.641 0 0 1-.94-.163 2.575 2.575 0 0 1-1.122-.743 2.345 2.345 0 0 1-.538-1.202c-.07-.467-.006-.98.19-1.54.197-.56.47-1.001.819-1.321.349-.32.74-.52 1.175-.598.434-.081.878-.042 1.33.116.299.105.56.244.786.417.227.173.411.375.552.605a2 2 0 0 1 .278.755c.044.275.032.568-.038.879zM49.857 86.666l.842-5.389 3.631.567-.147.94-2.492-.39-.2 1.285 2.305.36-.147.94-2.305-.361-.201 1.287 2.502.39-.147.94-3.641-.569zM58.743 83.204a.674.674 0 0 0-.312-.478c-.17-.106-.394-.149-.67-.127a1.256 1.256 0 0 0-.47.116.67.67 0 0 0-.28.238.52.52 0 0 0-.077.321c.004.098.031.181.081.25a.64.64 0 0 0 .203.174c.084.046.18.084.287.114.107.03.221.053.342.07l.497.08c.242.034.465.088.67.161.205.073.385.17.54.287.155.118.28.262.373.43.095.17.152.367.171.594.024.333-.039.628-.188.885a1.622 1.622 0 0 1-.678.622c-.303.157-.676.252-1.119.286-.439.034-.827-.004-1.163-.113a1.685 1.685 0 0 1-.805-.539c-.201-.251-.321-.572-.36-.963l1.112-.086c.027.182.09.33.192.445a.873.873 0 0 0 .396.244c.162.048.342.065.54.05a1.38 1.38 0 0 0 .501-.125.78.78 0 0 0 .319-.262.548.548 0 0 0 .093-.357.453.453 0 0 0-.133-.3.827.827 0 0 0-.33-.188 3.196 3.196 0 0 0-.514-.12l-.604-.103c-.467-.077-.842-.223-1.126-.44-.284-.216-.44-.526-.47-.928a1.43 1.43 0 0 1 .197-.883c.16-.26.39-.47.69-.633.301-.162.65-.259 1.047-.29.403-.03.76.011 1.072.126.314.115.564.289.751.522.188.233.296.511.327.835l-1.102.085zM63.686 86.364l-1.192.326.377-5.758 1.433-.393 3.253 4.765-1.192.326-2.428-3.698-.041.011-.21 4.42zm-.64-2.048 2.815-.77.238.868-2.816.77-.237-.868zM69.032 84.7l-2.388-4.904 3.247-1.581.416.854-2.21 1.077.57 1.168 1.994-.971.416.855-1.994.971.986 2.026-1.037.505zM73.673 82.38l-3.175-4.434 2.989-2.14.553.774-2.05 1.468.756 1.056 1.897-1.357.553.773-1.897 1.357.758 1.06 2.06-1.475.553.773-2.997 2.145zM74.628 76.08l-.681-.664 3.127-3.208.68.664-1.165 1.195 3.225 3.144-.796.817-3.225-3.144-1.165 1.195zM77.287 71.945l.705-1.083 2.647.24.03-.044-1.29-2.325.705-1.083 1.87 3.593 1.615 1.053-.625.96-1.616-1.053-4.041-.258zM28.238 42.961a.674.674 0 0 0-.568.06c-.172.103-.312.282-.419.538-.073.174-.11.33-.11.47a.67.67 0 0 0 .083.359c.06.098.143.17.251.215a.45.45 0 0 0 .26.042.64.64 0 0 0 .247-.101 1.44 1.44 0 0 0 .232-.203c.075-.083.148-.174.219-.273l.297-.407c.14-.199.29-.373.45-.522a1.99 1.99 0 0 1 .501-.35c.176-.084.36-.13.553-.135.194-.007.396.032.606.118.308.13.542.321.703.571.16.248.24.544.243.888.001.341-.084.716-.255 1.126-.17.406-.38.734-.631.983-.25.247-.532.405-.847.471-.316.064-.656.025-1.022-.119l.431-1.029c.174.06.335.07.484.032.147-.04.28-.12.398-.24.116-.123.213-.276.29-.46.075-.18.115-.347.118-.502a.779.779 0 0 0-.088-.403.547.547 0 0 0-.276-.245.454.454 0 0 0-.327-.019.829.829 0 0 0-.318.208 3.2 3.2 0 0 0-.341.402l-.367.49c-.281.381-.583.649-.905.803-.322.153-.67.152-1.04-.006a1.43 1.43 0 0 1-.697-.577 1.778 1.778 0 0 1-.248-.904 2.604 2.604 0 0 1 .22-1.063c.156-.373.357-.672.6-.897.246-.227.515-.37.808-.43.292-.06.59-.03.891.09l-.427 1.02zM33.087 42.002l-.681 1.03-3.512-4.576.819-1.239 5.585 1.437-.68 1.03-4.263-1.178-.024.035 2.756 3.46zm-1.831-1.117 1.608-2.435.751.496-1.608 2.435-.751-.496zM35.74 38.163l-3.932-3.78 2.503-2.604.685.659-1.703 1.772.937.9 1.537-1.599.686.66-1.538 1.599 1.624 1.561-.799.832zM38.843 35.066l-3.258-4.375 2.947-2.195.568.762-2.023 1.507.777 1.042 1.87-1.393.569.762-1.871 1.394.778 1.044 2.031-1.513.568.763-2.956 2.202zM44.157 27.407c-.09-.1-.187-.181-.29-.242a1.062 1.062 0 0 0-.702-.127c-.127.02-.258.062-.392.126a1.31 1.31 0 0 0-.573.506 1.362 1.362 0 0 0-.18.757c.008.288.094.603.259.945.164.343.356.609.575.8.22.19.455.302.706.337.25.033.505-.012.765-.137a1.48 1.48 0 0 0 .542-.414.992.992 0 0 0 .213-.542 1.18 1.18 0 0 0-.127-.61l.226-.07-1.268.609-.376-.783 2.058-.988.297.62c.208.432.295.847.261 1.245a2.068 2.068 0 0 1-.41 1.078c-.24.32-.567.58-.98.777-.46.222-.915.314-1.361.279a2.347 2.347 0 0 1-1.235-.48c-.375-.285-.687-.687-.936-1.205a3.4 3.4 0 0 1-.339-1.15c-.033-.37.002-.713.108-1.032.105-.318.27-.6.493-.848.224-.248.499-.45.824-.605.278-.134.557-.218.837-.251a2.3 2.3 0 0 1 .802.034c.258.058.495.16.71.306.216.145.399.33.55.558l-1.057.507zM48.406 29.752l-1.201.293.537-5.749 1.445-.352 3.12 4.856-1.201.293-2.325-3.766-.042.01-.333 4.415zm-.583-2.066 2.837-.692.213.875-2.837.692-.213-.875zM56.225 23.217l1.153-.031.096 3.54c.01.398-.075.749-.257 1.052-.18.303-.437.543-.772.719-.334.174-.727.267-1.178.28-.453.012-.85-.06-1.194-.216a1.906 1.906 0 0 1-.81-.676 1.914 1.914 0 0 1-.31-1.036l-.096-3.541 1.153-.031.093 3.442c.006.208.056.391.15.55.098.16.23.283.4.37.17.088.365.13.587.123.223-.006.416-.057.58-.154a.972.972 0 0 0 .375-.391c.088-.164.129-.35.123-.558l-.093-3.442zM58.027 28.543l.91-5.378 2.121.359c.406.069.74.2 1.003.394.265.192.45.433.556.723.108.288.132.61.072.966-.06.357-.19.651-.388.882a1.52 1.52 0 0 1-.769.475c-.313.088-.677.096-1.09.027l-1.42-.24.154-.915 1.237.21c.217.036.402.037.556.002a.652.652 0 0 0 .365-.214.857.857 0 0 0 .183-.425.892.892 0 0 0-.031-.47.67.67 0 0 0-.276-.333 1.346 1.346 0 0 0-.527-.19l-.767-.13-.752 4.45-1.137-.193zm3.318-1.956.923 2.673-1.256-.212-.893-2.669 1.226.208zM65.12 30.309l-1.805-.694 1.958-5.09 1.82.7c.511.197.913.469 1.204.815.291.344.464.744.517 1.2.054.457-.02.949-.224 1.478-.204.53-.48.947-.826 1.25a2.215 2.215 0 0 1-1.195.548c-.45.06-.933-.008-1.45-.207zm-.374-1.202.683.263c.318.122.608.169.868.14.263-.03.495-.144.696-.34.203-.198.378-.486.524-.866.144-.376.207-.704.188-.986a1.154 1.154 0 0 0-.287-.715c-.174-.196-.42-.355-.738-.478l-.685-.263-1.25 3.245zM68.33 31.661l2.892-4.625 3.116 1.948-.504.806-2.138-1.337-.69 1.102 1.98 1.237-.505.806-1.978-1.236-.69 1.104 2.147 1.343-.503.806-3.126-1.954zM73.653 35.452l-1.419-1.313 3.705-4.004 1.43 1.325c.403.372.676.773.818 1.202.144.428.156.864.036 1.307-.119.444-.37.874-.755 1.29-.386.417-.796.703-1.231.856a2.214 2.214 0 0 1-1.313.066c-.44-.11-.864-.352-1.27-.729zm.099-1.255.537.497c.25.232.502.383.755.452.255.07.513.05.772-.058.262-.109.531-.312.808-.61.273-.296.454-.578.54-.847a1.156 1.156 0 0 0-.002-.77c-.089-.247-.258-.486-.508-.718l-.54-.499-2.362 2.553zM77.262 39.288l4.593-2.94 1.177 1.839c.217.337.347.651.391.941.044.29.014.549-.091.776-.104.227-.27.414-.5.561a1.102 1.102 0 0 1-1.064.112 1.44 1.44 0 0 1-.455-.31l-.045.029a1.244 1.244 0 0 1 .023 1.206c-.102.2-.266.372-.491.516-.244.156-.5.235-.77.236a1.452 1.452 0 0 1-.79-.242c-.26-.164-.501-.418-.721-.762l-1.257-1.962zm1.416.463.507.791c.173.27.35.435.533.493.184.057.363.03.536-.08a.733.733 0 0 0 .278-.308.741.741 0 0 0 .06-.409 1.067 1.067 0 0 0-.173-.454l-.521-.815-1.22.782zm1.877-1.202.46.72c.086.133.185.236.297.31a.7.7 0 0 0 .36.117c.126.006.25-.03.37-.107a.598.598 0 0 0 .288-.435c.027-.181-.028-.38-.166-.595l-.472-.738-1.137.728zM84.814 41.121l.48 1.2-1.717 2.028.02.05 2.643.28.48 1.199-4.013-.535-1.79.717-.426-1.063 1.79-.717 2.533-3.159z" fill="#0F0F0F"/>
        <mask id="3gy2ugkmvb" style="mask-type:luminance" maskUnits="userSpaceOnUse" x="20" y="20" width="72" height="72">
            <path d="M20 20h72v72H20V20z" fill="#fff"/>
        </mask>
        <g mask="url(#3gy2ugkmvb)">
            <path d="m66.8 45.146-.43-.29-5.053 6.113c.215.223.39.482.517.765L70.6 50.57a13.104 13.104 0 0 0-3.8-5.427v.003zm4.148 6.5L62.07 52.83v.033a2.7 2.7 0 0 1-.278 1.2l9.355 5.5a16.12 16.12 0 0 0 .39-3.563 15.75 15.75 0 0 0-.589-4.35v-.004zm-9.393-9.316-10.014 4.889a1.95 1.95 0 0 1-.15.727l5.7 3.352a2.737 2.737 0 0 1 3.324-.953l5.14-6.138a14.993 14.993 0 0 0-4-1.872v-.005zm-3.666 23.4-9.4 3.209a2.743 2.743 0 0 1-1.35 1.507h8.96c.638 0 1.262-.028 1.872-.085l.173-4.442a1.65 1.65 0 0 1-.246-.187l-.009-.002zm2.574-.879a1.537 1.537 0 0 1-1.226 1.268l-.159 4.1a13.947 13.947 0 0 0 11.53-8.835l-10.145 3.467zm-4.373-23.3H51.1l-.864 3.716c.423.161.78.459 1.014.846l8.62-4.213a19.724 19.724 0 0 0-3.78-.356m-12.053 0v1.4l3.97 2.868a2 2 0 0 1 1.1-.634l.841-3.626h-5.91v-.008zM56.6 52.859c0-.178.017-.356.053-.531l-5.962-3.5a2.015 2.015 0 0 1-1.348.36L45.6 65.3a2.7 2.7 0 0 1 1.889.465l9.555-11.411a2.727 2.727 0 0 1-.45-1.5l.006.005zm4.516 2.091a2.72 2.72 0 0 1-1.46.633l-.29 7.548c.354.098.662.32.866.626l10.033-3.425-9.15-5.382m-3.275.2-9.575 11.44c.21.341.34.726.38 1.124l8.774-3v-.1a1.538 1.538 0 0 1 .83-1.365l.3-7.766a2.746 2.746 0 0 1-.7-.331l-.009-.002zM47.5 47.168c0-.11.008-.219.024-.327l-3.482-2.517V66.05l.3-.254 3.944-17.022a2.022 2.022 0 0 1-.794-1.606h.008z" fill="#0F0F0F"/>
            <path d="m44.337 65.8-.3.252c.095-.09.195-.174.3-.252z" fill="#fff"/>
            <path d="M47.919 68a1.993 1.993 0 0 1-3.537 1.256A1.99 1.99 0 0 1 43.938 68a1.95 1.95 0 0 1 1.476-1.922 1.993 1.993 0 0 1 2.508 1.874V68h-.003zM59.328 50.965a1.9 1.9 0 1 1 0 3.8 1.9 1.9 0 0 1 0-3.8zM49.513 45.767a1.4 1.4 0 1 1 0 2.8 1.4 1.4 0 0 1 0-2.8zM58.943 63.581a1.03 1.03 0 1 1 .002 2.06 1.03 1.03 0 0 1-.002-2.06z" fill="#0F0F0F"/>
            <path d="M56 92a36 36 0 1 1 0-71.999A36 36 0 0 1 56 92zm0-70.755a34.755 34.755 0 1 0 0 69.51 34.755 34.755 0 0 0 0-69.51z" fill="#0F0F0F"/>
            <path d="M56 79.755a23.754 23.754 0 1 1 0-47.508 23.754 23.754 0 0 1 0 47.508zm0-46.265a22.509 22.509 0 1 0 0 45.017 22.509 22.509 0 0 0 0-45.017zM28.4 55.676a1.62 1.62 0 1 1-3.24-.004 1.62 1.62 0 0 1 3.24.004zM86.955 55.676a1.62 1.62 0 1 1-3.239-.005 1.62 1.62 0 0 1 3.239.005z" fill="#0F0F0F"/>
        </g>
    </g>
    <defs>
        <clipPath id="xcj5ve2sza">
            <path fill="#fff" d="M0 0h407v112H0z"/>
        </clipPath>
    </defs>
</svg>
